<svg width="24" height="18" viewBox="0 0 24 18" fill="none" xmlns="http://www.w3.org/2000/svg">
<g clip-path="url(#clip0_1020_3750)">
<path d="M22 10.24C21.9965 8.4926 21.4711 6.78609 20.4911 5.33933C19.5112 3.89257 18.1214 2.77154 16.5 2.12L14.64 5.85V0.73C14.6374 0.535478 14.5582 0.349815 14.4198 0.213194C14.2813 0.0765721 14.0945 -1.77607e-05 13.9 3.08931e-09L9.51 3.08931e-09C9.31639 3.08931e-09 9.13071 0.0769105 8.99381 0.213812C8.85691 0.350714 8.78 0.536392 8.78 0.73V5.85L6.91 2.12C5.29875 2.78045 3.92027 3.9051 2.94983 5.35097C1.97938 6.79685 1.46079 8.49864 1.46 10.24V13.17H22V10.24ZM22.73 14.64H0.73C0.536392 14.64 0.350714 14.7169 0.213812 14.8538C0.0769105 14.9907 0 15.1764 0 15.37L0 16.83C0 17.0236 0.0769105 17.2093 0.213812 17.3462C0.350714 17.4831 0.536392 17.56 0.73 17.56H22.73C22.9245 17.56 23.1113 17.4834 23.2498 17.3468C23.3882 17.2102 23.4674 17.0245 23.47 16.83V15.37C23.4703 15.2689 23.4497 15.1688 23.4093 15.0761C23.3689 14.9833 23.3097 14.9 23.2354 14.8314C23.1612 14.7627 23.0734 14.7103 22.9778 14.6774C22.8822 14.6444 22.7808 14.6317 22.68 14.64H22.73Z" fill="#F5BF3E"/>
</g>
<defs>
<clipPath id="clip0_1020_3750">
<rect width="23.42" height="17.56" fill="white"/>
</clipPath>
</defs>
</svg>
