<svg width="18" height="20" viewBox="0 0 18 20" fill="none" xmlns="http://www.w3.org/2000/svg">
<g clip-path="url(#clip0_1020_3734)">
<path d="M2.84 18.0902C2.83734 18.3409 2.8846 18.5896 2.97902 18.8219C3.07344 19.0542 3.21313 19.2654 3.38996 19.4431C3.56679 19.6209 3.77722 19.7617 4.009 19.8573C4.24078 19.953 4.48927 20.0015 4.74 20.0002H12.38C12.8813 20.0002 13.362 19.8011 13.7164 19.4466C14.0709 19.0922 14.27 18.6114 14.27 18.1102V16.0002H2.84V18.0902ZM15.16 1.90018H12.81C12.2753 1.30194 11.6204 0.823319 10.888 0.495621C10.1556 0.167924 9.36234 -0.00146484 8.56 -0.00146484C7.75766 -0.00146484 6.96435 0.167924 6.23198 0.495621C5.4996 0.823319 4.84466 1.30194 4.31 1.90018H2C1.47812 1.90002 0.976843 2.10385 0.603175 2.46818C0.229507 2.83251 0.013047 3.32846 0 3.85018L0 9.00018C0.013047 9.5219 0.229507 10.0179 0.603175 10.3822C0.976843 10.7465 1.47812 10.9503 2 10.9502H2.89V13.4202H14.27V10.9102H15.16C15.6665 10.898 16.1495 10.6941 16.5115 10.3395C16.8734 9.98502 17.0873 9.50633 17.11 9.00018V3.85018C17.0973 3.337 16.8878 2.84834 16.5248 2.48536C16.1618 2.12237 15.6732 1.91286 15.16 1.90018ZM8.56 8.90018C8.08467 8.89426 7.6217 8.7479 7.22935 8.47952C6.83699 8.21113 6.53277 7.83271 6.35495 7.39185C6.17714 6.95099 6.13367 6.46739 6.23002 6.00189C6.32637 5.53639 6.55824 5.10978 6.89645 4.77573C7.23465 4.44168 7.6641 4.21511 8.13076 4.12453C8.59741 4.03394 9.08044 4.08339 9.51906 4.26664C9.95769 4.4499 10.3323 4.75878 10.5958 5.15443C10.8593 5.55007 11 6.01481 11 6.49018C11 6.80921 10.9367 7.12506 10.8137 7.41943C10.6907 7.7138 10.5105 7.98082 10.2836 8.205C10.0566 8.42919 9.78735 8.60608 9.49148 8.72541C9.19562 8.84475 8.879 8.90415 8.56 8.90018Z" fill="#F5BF3E"/>
</g>
<defs>
<clipPath id="clip0_1020_3734">
<rect width="17.11" height="19.98" fill="white"/>
</clipPath>
</defs>
</svg>
