<svg width="25" height="25" viewBox="0 0 25 25" fill="none" xmlns="http://www.w3.org/2000/svg">
<path d="M24.3088 9.89013L22.4988 8.07013C22.3472 7.9199 22.1423 7.83563 21.9288 7.83563C21.7154 7.83563 21.5105 7.9199 21.3588 8.07013L14.4188 15.0701C14.3432 15.1446 14.2832 15.2333 14.2422 15.3312C14.2013 15.429 14.1802 15.534 14.1802 15.6401C14.1802 15.7462 14.2013 15.8512 14.2422 15.9491C14.2832 16.047 14.3432 16.1357 14.4188 16.2101L16.2288 18.0001C16.3788 18.1497 16.582 18.2338 16.7938 18.2338C17.0057 18.2338 17.2089 18.1497 17.3588 18.0001L24.3588 11.0501C24.4344 10.9721 24.4932 10.8794 24.5318 10.7778C24.5704 10.6763 24.5879 10.5679 24.5832 10.4594C24.5785 10.3508 24.5518 10.2444 24.5046 10.1465C24.4574 10.0486 24.3908 9.96141 24.3088 9.89013ZM8.38884 10.1301C8.53881 10.2797 8.742 10.3638 8.95384 10.3638C9.16567 10.3638 9.36886 10.2797 9.51884 10.1301L16.5188 3.13013C16.6684 2.98015 16.7525 2.77696 16.7525 2.56513C16.7525 2.35329 16.6684 2.1501 16.5188 2.00013L14.6588 0.240127C14.5844 0.164539 14.4957 0.104512 14.3978 0.0635386C14.3 0.0225655 14.1949 0.00146484 14.0888 0.00146484C13.9827 0.00146484 13.8777 0.0225655 13.7799 0.0635386C13.682 0.104512 13.5933 0.164539 13.5188 0.240127L6.57884 7.18013C6.50325 7.25457 6.44322 7.3433 6.40225 7.44115C6.36127 7.53901 6.34017 7.64404 6.34017 7.75013C6.34017 7.85622 6.36127 7.96124 6.40225 8.0591C6.44322 8.15696 6.50325 8.24569 6.57884 8.32013L8.38884 10.1301ZM19.6588 7.13013L17.4088 4.89013C17.3854 4.86435 17.3568 4.84375 17.325 4.82966C17.2931 4.81556 17.2587 4.80828 17.2238 4.80828C17.189 4.80828 17.1545 4.81556 17.1227 4.82966C17.0908 4.84375 17.0623 4.86435 17.0388 4.89013L11.2288 10.6901C11.2028 10.7145 11.182 10.7439 11.1678 10.7766C11.1536 10.8092 11.1463 10.8445 11.1463 10.8801C11.1463 10.9158 11.1536 10.951 11.1678 10.9837C11.182 11.0164 11.2028 11.0458 11.2288 11.0701L11.7788 11.6301L8.32884 15.0801L7.85884 14.6201C7.78526 14.5448 7.69737 14.485 7.60035 14.4442C7.50332 14.4033 7.39911 14.3823 7.29384 14.3823C7.18856 14.3823 7.08435 14.4033 6.98732 14.4442C6.8903 14.485 6.80241 14.5448 6.72884 14.6201L0.658835 20.6801C0.234489 21.1045 -0.00390625 21.68 -0.00390625 22.2801C-0.00390625 22.8802 0.234489 23.4558 0.658835 23.8801C1.08318 24.3045 1.65872 24.5429 2.25884 24.5429C2.85895 24.5429 3.43449 24.3045 3.85884 23.8801L9.92884 17.8201C10.0791 17.6685 10.1633 17.4636 10.1633 17.2501C10.1633 17.0366 10.0791 16.8318 9.92884 16.6801L9.45884 16.2201L12.9188 12.7601L13.4688 13.3201C13.5206 13.3679 13.5884 13.3945 13.6588 13.3945C13.7293 13.3945 13.7971 13.3679 13.8488 13.3201L19.6588 7.51013C19.7066 7.4584 19.7332 7.39056 19.7332 7.32013C19.7332 7.2497 19.7066 7.18186 19.6588 7.13013V7.13013Z" fill="#F5BF3E"/>
</svg>
