<svg width="21" height="21" viewBox="0 0 21 21" fill="none" xmlns="http://www.w3.org/2000/svg">
<g clip-path="url(#clip0_1020_3740)">
<path d="M20.54 0.71C20.5309 0.530684 20.4569 0.360806 20.3317 0.232019C20.2066 0.103233 20.039 0.0243255 19.86 0.01H14.21C14.1041 0.00313344 13.9979 0.018244 13.8981 0.0543827C13.7982 0.0905214 13.707 0.146908 13.63 0.22C13.4888 0.38108 13.4076 0.58595 13.4 0.8V2.63C13.4111 2.80333 13.4837 2.96701 13.6047 3.09165C13.7256 3.21628 13.8871 3.2937 14.06 3.31H17.23V9.57H16C15.8407 9.58142 15.6893 9.64408 15.5686 9.74862C15.4478 9.85316 15.3641 9.99396 15.33 10.15C15.3251 10.2166 15.3251 10.2834 15.33 10.35V12.1C15.33 12.1 15.33 12.21 15.33 12.24C15.3521 12.407 15.4306 12.5615 15.5524 12.6778C15.6743 12.7942 15.8321 12.8655 16 12.88H17.24V17.23H11V12.89H12.24C12.4044 12.8778 12.5596 12.8096 12.6797 12.6967C12.7998 12.5839 12.8776 12.4333 12.9 12.27C12.9053 12.2168 12.9053 12.1632 12.9 12.11V10.22C12.8793 10.0507 12.7999 9.89396 12.6757 9.77705C12.5515 9.66014 12.3903 9.59042 12.22 9.58H6.43C6.25801 9.59494 6.09644 9.66876 5.97256 9.789C5.84868 9.90924 5.77007 10.0685 5.75 10.24C5.74508 10.2798 5.74508 10.3202 5.75 10.36V12.1C5.74505 12.1499 5.74505 12.2001 5.75 12.25C5.77423 12.4152 5.85361 12.5673 5.97525 12.6817C6.09689 12.7961 6.25363 12.866 6.42 12.88H7.66V17.22H3.31V3.32H7.13L7.36 3.52L7.43 3.61C7.50493 3.68559 7.58513 3.75576 7.67 3.82L7.75 3.9L10.46 6.41C10.5105 6.47319 10.5713 6.52731 10.64 6.57C10.7496 6.6943 10.8964 6.77993 11.0585 6.81416C11.2207 6.84839 11.3895 6.82939 11.54 6.76C11.626 6.72035 11.7067 6.66995 11.78 6.61C11.8058 6.58925 11.8293 6.56578 11.85 6.54L12 6.48L12.19 6.31C12.229 6.28667 12.2658 6.2599 12.3 6.23L12.47 6.08C12.5536 6.02961 12.628 5.96536 12.69 5.89C12.7786 5.82647 12.8621 5.75626 12.94 5.68C12.9991 5.64424 13.0529 5.60049 13.1 5.55L13.31 5.38C13.4066 5.30179 13.4814 5.1999 13.5269 5.08424C13.5725 4.96858 13.5873 4.8431 13.57 4.72C13.5494 4.57742 13.4982 4.44097 13.42 4.32C13.3523 4.2252 13.2675 4.14381 13.17 4.08C13.17 4.08 9.36 0.57 9.28 0.53H9.35L9.18 0.4C9.12483 0.347435 9.06453 0.300533 9 0.26C8.83299 0.0990509 8.61186 0.00631963 8.38 0L0.75 0C0.551088 0 0.360322 0.0790176 0.21967 0.21967C0.0790176 0.360322 0 0.551088 0 0.75L0 19.85C0.0114653 20.0275 0.0865135 20.195 0.211397 20.3217C0.336281 20.4485 0.50264 20.5259 0.68 20.54H19.84C20.0207 20.5162 20.188 20.4322 20.315 20.3016C20.4421 20.1709 20.5213 20.0013 20.54 19.82V0.71Z" fill="#F5BF3E"/>
</g>
<defs>
<clipPath id="clip0_1020_3740">
<rect width="20.54" height="20.54" fill="white"/>
</clipPath>
</defs>
</svg>
