<svg width="24" height="23" viewBox="0 0 24 23" fill="none" xmlns="http://www.w3.org/2000/svg">
<path d="M17.1 14.22C17.4463 13.3595 17.5762 12.4271 17.4783 11.5047C17.3805 10.5823 17.0577 9.69797 16.5385 8.9293C16.0193 8.16064 15.3194 7.5311 14.5002 7.09589C13.6811 6.66069 12.7676 6.43311 11.84 6.43311C10.9124 6.43311 9.99897 6.66069 9.1798 7.09589C8.36063 7.5311 7.66074 8.16064 7.14152 8.9293C6.62229 9.69797 6.29958 10.5823 6.20168 11.5047C6.10378 12.4271 6.23369 13.3595 6.58001 14.22C6.73578 14.6123 6.93717 14.9848 7.18001 15.33L11.3 23H12.38L16.5 15.33C16.7429 14.9848 16.9442 14.6123 17.1 14.22ZM11.84 15.35C11.1992 15.35 10.5728 15.16 10.04 14.804C9.50715 14.448 9.09187 13.9419 8.84664 13.3499C8.60142 12.7579 8.53725 12.1064 8.66227 11.4779C8.78729 10.8494 9.09587 10.2721 9.54899 9.81899C10.0021 9.36587 10.5794 9.05729 11.2079 8.93227C11.8364 8.80725 12.4879 8.87142 13.0799 9.11664C13.6719 9.36187 14.178 9.77715 14.534 10.31C14.89 10.8428 15.08 11.4692 15.08 12.11C15.08 12.5355 14.9962 12.9568 14.8334 13.3499C14.6706 13.743 14.4319 14.1002 14.131 14.401C13.8302 14.7019 13.473 14.9406 13.0799 15.1034C12.6868 15.2662 12.2655 15.35 11.84 15.35ZM22.86 0.910014C22.6944 0.787122 22.5017 0.705734 22.2981 0.672675C22.0946 0.639616 21.886 0.655849 21.69 0.720014L15.78 2.56001L8.16001 0.0700137C7.89669 -0.0148744 7.61334 -0.0148744 7.35001 0.0700137L0.910014 2.17001C0.645341 2.25488 0.414521 2.42174 0.250934 2.64644C0.0873465 2.87115 -0.000529304 3.14207 1.42462e-05 3.42001V20.59C-0.000966854 20.8004 0.0487401 21.0079 0.14493 21.195C0.24112 21.3822 0.380963 21.5434 0.552628 21.665C0.724293 21.7866 0.92273 21.8651 1.13115 21.8939C1.33957 21.9226 1.55185 21.9007 1.75001 21.83L6.61001 20.12C6.77285 20.0629 6.92285 19.9743 7.05143 19.8592C7.18001 19.7441 7.28467 19.6048 7.35942 19.4492C7.43417 19.2937 7.47755 19.125 7.48709 18.9527C7.49663 18.7803 7.47214 18.6079 7.41501 18.445C7.35789 18.2822 7.26925 18.1322 7.15416 18.0036C7.03907 17.875 6.89977 17.7704 6.74424 17.6956C6.5887 17.6209 6.41996 17.5775 6.24765 17.5679C6.07535 17.5584 5.90285 17.5829 5.74001 17.64L2.63001 18.73V4.37001L7.75001 2.70001L15.36 5.19001C15.6199 5.27479 15.9001 5.27479 16.16 5.19001L20.77 3.75001V17.89L15.82 19.8C15.5285 19.9066 15.2843 20.1133 15.1309 20.3831C14.9775 20.653 14.925 20.9686 14.9826 21.2736C15.0403 21.5786 15.2043 21.8533 15.4456 22.0486C15.6869 22.2439 15.9897 22.3472 16.3 22.34C16.4609 22.3391 16.6202 22.3086 16.77 22.25L22.55 20C22.7984 19.9046 23.0118 19.7357 23.1618 19.516C23.3119 19.2963 23.3915 19.0361 23.39 18.77V2.00001C23.3968 1.78894 23.3522 1.57939 23.2598 1.38947C23.1675 1.19955 23.0302 1.03499 22.86 0.910014Z" fill="#F5BF3E"/>
</svg>
