<svg width="19" height="21" viewBox="0 0 19 21" fill="none" xmlns="http://www.w3.org/2000/svg">
<g clip-path="url(#clip0_1020_3736)">
<path d="M2.81 11H2.19C1.60918 11 1.05214 11.2307 0.641436 11.6414C0.230731 12.0521 0 12.6092 0 13.19L0 18.81C0 19.0976 0.056646 19.3824 0.166704 19.6481C0.276762 19.9138 0.438076 20.1552 0.641436 20.3586C0.844796 20.5619 1.08622 20.7232 1.35192 20.8333C1.61763 20.9434 1.90241 21 2.19 21H2.81C3.09759 21 3.38237 20.9434 3.64808 20.8333C3.91378 20.7232 4.1552 20.5619 4.35856 20.3586C4.56192 20.1552 4.72324 19.9138 4.8333 19.6481C4.94335 19.3824 5 19.0976 5 18.81V13.19C5 12.6092 4.76927 12.0521 4.35856 11.6414C3.94786 11.2307 3.39082 11 2.81 11ZM16.5 5C15.837 5 15.2011 5.26339 14.7322 5.73223C14.2634 6.20107 14 6.83696 14 7.5V18.5C14 19.163 14.2634 19.7989 14.7322 20.2678C15.2011 20.7366 15.837 21 16.5 21C17.163 21 17.7989 20.7366 18.2678 20.2678C18.7366 19.7989 19 19.163 19 18.5V7.5C19 6.83696 18.7366 6.20107 18.2678 5.73223C17.7989 5.26339 17.163 5 16.5 5ZM9.5 0C8.83696 0 8.20107 0.263392 7.73223 0.732233C7.26339 1.20107 7 1.83696 7 2.5V18.5C7 19.163 7.26339 19.7989 7.73223 20.2678C8.20107 20.7366 8.83696 21 9.5 21C10.163 21 10.7989 20.7366 11.2678 20.2678C11.7366 19.7989 12 19.163 12 18.5V2.5C12 2.1717 11.9353 1.84661 11.8097 1.54329C11.6841 1.23998 11.4999 0.964379 11.2678 0.732233C11.0356 0.500087 10.76 0.315938 10.4567 0.190301C10.1534 0.0646644 9.8283 0 9.5 0V0Z" fill="#F5BF3E"/>
</g>
<defs>
<clipPath id="clip0_1020_3736">
<rect width="19" height="21" fill="white"/>
</clipPath>
</defs>
</svg>
