<svg width="28" height="23" viewBox="0 0 28 23" fill="none" xmlns="http://www.w3.org/2000/svg">
<g clip-path="url(#clip0_1020_3540)">
<path d="M27.43 7.44009L17.55 2.05009L13.83 8.5827e-05C13.8106 -0.0124019 13.7881 -0.019043 13.765 -0.019043C13.7419 -0.019043 13.7194 -0.0124019 13.7 8.5827e-05L13.29 0.230086L0.41 7.27009L0 7.50009H0.07L2.54 8.88009L13.7 15.0001C13.7194 15.0126 13.7419 15.0192 13.765 15.0192C13.7881 15.0192 13.8106 15.0126 13.83 15.0001L23.89 9.49009L25 8.86009V16.2601C25 16.5916 25.1317 16.9095 25.3661 17.144C25.6005 17.3784 25.9185 17.5101 26.25 17.5101C26.5815 17.5101 26.8995 17.3784 27.1339 17.144C27.3683 16.9095 27.5 16.5916 27.5 16.2601V7.62009C27.508 7.58652 27.5055 7.55133 27.493 7.51918C27.4805 7.48703 27.4586 7.45944 27.43 7.44009ZM22.53 12.7301H22.43L13.83 17.4301C13.8135 17.4448 13.7921 17.453 13.77 17.453C13.7479 17.453 13.7265 17.4448 13.71 17.4301L5.17 12.8201L5 12.7301V12.8301C5 14.4401 5 16.0501 5 17.6601C5 17.6858 5.0076 17.7108 5.02183 17.7322C5.03607 17.7536 5.05631 17.7702 5.08 17.7801L13.7 22.4901C13.722 22.5 13.7459 22.5052 13.77 22.5052C13.7941 22.5052 13.818 22.5 13.84 22.4901L22.46 17.7801C22.4827 17.7698 22.5016 17.7527 22.5141 17.7312C22.5267 17.7097 22.5322 17.6849 22.53 17.6601V12.7301Z" fill="#F5BF3E"/>
</g>
<defs>
<clipPath id="clip0_1020_3540">
<rect width="27.54" height="22.51" fill="white"/>
</clipPath>
</defs>
</svg>
