<svg width="27" height="23" viewBox="0 0 27 23" fill="none" xmlns="http://www.w3.org/2000/svg">
<g clip-path="url(#clip0_1020_3752)">
<path d="M26.7861 16.12L22.9961 9.79995H25.7361C26.0419 9.7723 26.3263 9.63127 26.5334 9.4046C26.7405 9.17792 26.8553 8.88199 26.8553 8.57495C26.8553 8.26792 26.7405 7.97198 26.5334 7.74531C26.3263 7.51863 26.0419 7.37761 25.7361 7.34995H14.7361V1.22995C14.7515 1.05978 14.7313 0.88827 14.6767 0.726351C14.6221 0.564432 14.5344 0.415659 14.4192 0.289514C14.3039 0.163369 14.1637 0.0626207 14.0073 -0.00630967C13.851 -0.07524 13.682 -0.11084 13.5111 -0.11084C13.3402 -0.11084 13.1712 -0.07524 13.0149 -0.00630967C12.8586 0.0626207 12.7183 0.163369 12.603 0.289514C12.4878 0.415659 12.4001 0.564432 12.3455 0.726351C12.2909 0.88827 12.2707 1.05978 12.2861 1.22995V7.34995H1.28611C1.11593 7.33456 0.944422 7.35479 0.782503 7.40936C0.620585 7.46393 0.471811 7.55163 0.345666 7.66688C0.219522 7.78214 0.118773 7.9224 0.0498427 8.07875C-0.0190877 8.23509 -0.0546875 8.40409 -0.0546875 8.57495C-0.0546875 8.74582 -0.0190877 8.91481 0.0498427 9.07116C0.118773 9.2275 0.219522 9.36777 0.345666 9.48302C0.471811 9.59827 0.620585 9.68598 0.782503 9.74054C0.944422 9.79511 1.11593 9.81534 1.28611 9.79995H3.99611L0.166105 16.12C0.0468117 16.3083 -0.0156816 16.527 -0.0138949 16.75C-0.0138949 18.3757 0.631943 19.9349 1.78154 21.0845C2.93114 22.2341 4.49033 22.88 6.11611 22.88C7.74188 22.88 9.30107 22.2341 10.4507 21.0845C11.6003 19.9349 12.2461 18.3757 12.2461 16.75C12.2432 16.5277 12.1811 16.3102 12.0661 16.12L8.28611 9.79995H18.6661L14.8761 16.12C14.7642 16.311 14.7055 16.5285 14.7061 16.75C14.6728 17.5751 14.8065 18.3985 15.0993 19.1707C15.392 19.9429 15.8378 20.648 16.4099 21.2436C16.9819 21.8393 17.6684 22.3132 18.4282 22.6369C19.1879 22.9606 20.0053 23.1275 20.8311 23.1275C21.6569 23.1275 22.4743 22.9606 23.234 22.6369C23.9938 22.3132 24.6803 21.8393 25.2523 21.2436C25.8244 20.648 26.2702 19.9429 26.5629 19.1707C26.8557 18.3985 26.9895 17.5751 26.9561 16.75C26.9567 16.5285 26.898 16.311 26.7861 16.12ZM8.86611 15.53H3.38611L6.12611 11L8.86611 15.53ZM18.0961 15.53L20.8361 11L23.5661 15.57L18.0961 15.53Z" fill="#F5BF3E"/>
</g>
<defs>
<clipPath id="clip0_1020_3752">
<rect width="26.96" height="22.88" fill="white"/>
</clipPath>
</defs>
</svg>
