<svg width="55" height="56" viewBox="0 0 55 56" fill="none" xmlns="http://www.w3.org/2000/svg">
<g clip-path="url(#clip0_1020_3756)">
<path d="M48.4616 39.7002V47.4202C48.4626 47.5982 48.4161 47.7733 48.3269 47.9273C48.2377 48.0813 48.109 48.2087 47.954 48.2964C47.7991 48.384 47.6236 48.4288 47.4456 48.4259C47.2676 48.4231 47.0936 48.3728 46.9416 48.2802L43.3116 46.1502H43.2416L39.6216 48.2802C39.4695 48.3728 39.2955 48.4231 39.1176 48.4259C38.9396 48.4288 38.7641 48.384 38.6091 48.2964C38.4542 48.2087 38.3255 48.0813 38.2363 47.9273C38.147 47.7733 38.1005 47.5982 38.1016 47.4202V39.7002" stroke="url(#paint0_linear_1020_3756)" stroke-width="2" stroke-linecap="round" stroke-linejoin="round"/>
<path d="M43 15V3.54C43 2.86635 42.7324 2.22029 42.2561 1.74395C41.7797 1.26761 41.1336 1 40.46 1H11" stroke="url(#paint1_linear_1020_3756)" stroke-width="2" stroke-linecap="round" stroke-linejoin="round"/>
<path d="M1 11V52.46C1 53.1336 1.26761 53.7797 1.74395 54.2561C2.22029 54.7324 2.86635 55 3.54 55H40.46C41.1336 55 41.7797 54.7324 42.2561 54.2561C42.7324 53.7797 43 53.1336 43 52.46V51" stroke="url(#paint2_linear_1020_3756)" stroke-width="2" stroke-linecap="round" stroke-linejoin="round"/>
<path d="M1 11H8.55C9.19978 11 9.82295 10.7419 10.2824 10.2824C10.7419 9.82295 11 9.19978 11 8.55V1L1 11Z" stroke="url(#paint3_linear_1020_3756)" stroke-width="2" stroke-linecap="round" stroke-linejoin="round"/>
<path d="M21 11H19.51C19.1103 10.9974 18.7278 10.8374 18.4452 10.5548C18.1626 10.2722 18.0026 9.88967 18 9.49V7.49C18.0078 7.09382 18.17 6.71635 18.4521 6.43803C18.7342 6.1597 19.1137 6.00253 19.51 6H34.51C34.9062 6.00781 35.2837 6.17003 35.562 6.45209C35.8403 6.73415 35.9975 7.11375 36 7.51V9.51C35.9922 9.90618 35.83 10.2837 35.5479 10.562C35.2658 10.8403 34.8863 10.9975 34.49 11H25" stroke="url(#paint4_linear_1020_3756)" stroke-width="2" stroke-linecap="round" stroke-linejoin="round"/>
<path d="M7 20H27" stroke="url(#paint5_linear_1020_3756)" stroke-width="2" stroke-linecap="round" stroke-linejoin="round"/>
<path d="M7 26H27" stroke="url(#paint6_linear_1020_3756)" stroke-width="2" stroke-linecap="round" stroke-linejoin="round"/>
<path d="M7 32H27" stroke="url(#paint7_linear_1020_3756)" stroke-width="2" stroke-linecap="round" stroke-linejoin="round"/>
<path d="M7 38H27" stroke="url(#paint8_linear_1020_3756)" stroke-width="2" stroke-linecap="round" stroke-linejoin="round"/>
<path d="M7 46H15" stroke="url(#paint9_linear_1020_3756)" stroke-width="2" stroke-linecap="round" stroke-linejoin="round"/>
<path d="M44.6271 19.6401L45.1971 19.3201C45.5672 19.1196 45.9774 19.0042 46.3978 18.9823C46.8181 18.9604 47.2381 19.0326 47.6271 19.1935C48.016 19.3545 48.3642 19.6002 48.6462 19.9127C48.9281 20.2252 49.1368 20.5967 49.2571 21.0001L49.4371 21.6301C49.5702 22.0829 49.8148 22.495 50.1485 22.8287C50.4822 23.1624 50.8943 23.407 51.3471 23.5401L51.9671 23.7201C52.3713 23.8375 52.744 24.0442 53.0576 24.3249C53.3712 24.6056 53.6177 24.9532 53.779 25.342C53.9403 25.7308 54.0121 26.1508 53.9893 26.5711C53.9665 26.9913 53.8495 27.4011 53.6471 27.7701L53.3371 28.3401C53.1104 28.7558 52.9916 29.2217 52.9916 29.6951C52.9916 30.1686 53.1104 30.6345 53.3371 31.0501L53.6471 31.6201C53.8518 31.9868 53.9715 32.3948 53.9972 32.814C54.0229 33.2332 53.9539 33.6528 53.7955 34.0417C53.637 34.4306 53.3931 34.7789 53.0818 35.0608C52.7705 35.3427 52.3998 35.5509 51.9971 35.6701L51.3771 35.8501C50.9228 35.9833 50.5094 36.2292 50.1755 36.5649C49.8416 36.9005 49.5979 37.3151 49.4671 37.7701L49.2871 38.3901C49.1685 38.7946 48.9606 39.1674 48.6789 39.481C48.3972 39.7946 48.0488 40.041 47.6593 40.2022C47.2698 40.3634 46.8491 40.4352 46.4282 40.4123C46.0073 40.3895 45.5969 40.2725 45.2271 40.0701L44.6571 39.7601C44.2447 39.5289 43.7799 39.4074 43.3071 39.4074C42.8343 39.4074 42.3695 39.5289 41.9571 39.7601L41.3871 40.0701C41.0173 40.2725 40.6069 40.3895 40.186 40.4123C39.7651 40.4352 39.3444 40.3634 38.9549 40.2022C38.5654 40.041 38.2169 39.7946 37.9352 39.481C37.6535 39.1674 37.4457 38.7946 37.3271 38.3901L37.1471 37.7701C37.0163 37.3151 36.7726 36.9005 36.4387 36.5649C36.1047 36.2292 35.6914 35.9833 35.2371 35.8501L34.6171 35.6701C34.2118 35.5544 33.8378 35.3486 33.5231 35.0682C33.2085 34.7878 32.9611 34.4399 32.7996 34.0506C32.6381 33.6613 32.5666 33.2405 32.5904 32.8196C32.6142 32.3988 32.7327 31.9888 32.9371 31.6201L33.2471 31.0501C33.4738 30.6345 33.5926 30.1686 33.5926 29.6951C33.5926 29.2217 33.4738 28.7558 33.2471 28.3401L32.9371 27.7701C32.7347 27.4011 32.6177 26.9913 32.5949 26.5711C32.5721 26.1508 32.6439 25.7308 32.8052 25.342C32.9665 24.9532 33.213 24.6056 33.5266 24.3249C33.8402 24.0442 34.2129 23.8375 34.6171 23.7201L35.2371 23.5401C35.6898 23.407 36.102 23.1624 36.4357 22.8287C36.7694 22.495 37.014 22.0829 37.1471 21.6301L37.2971 21.0001C37.4173 20.5967 37.626 20.2252 37.908 19.9127C38.19 19.6002 38.5382 19.3545 38.9271 19.1935C39.3161 19.0326 39.736 18.9604 40.1564 18.9823C40.5768 19.0042 40.987 19.1196 41.3571 19.3201L41.9271 19.6401C42.3409 19.8668 42.8052 19.9857 43.2771 19.9857C43.749 19.9857 44.2132 19.8668 44.6271 19.6401Z" stroke="url(#paint10_linear_1020_3756)" stroke-width="2" stroke-linecap="round" stroke-linejoin="round"/>
<path d="M43.2831 35.5301C46.5029 35.5301 49.1131 32.9199 49.1131 29.7001C49.1131 26.4803 46.5029 23.8701 43.2831 23.8701C40.0633 23.8701 37.4531 26.4803 37.4531 29.7001C37.4531 32.9199 40.0633 35.5301 43.2831 35.5301Z" stroke="url(#paint11_linear_1020_3756)" stroke-width="2" stroke-linecap="round" stroke-linejoin="round"/>
</g>
<defs>
<linearGradient id="paint0_linear_1020_3756" x1="37.1016" y1="44.0602" x2="49.4616" y2="44.0602" gradientUnits="userSpaceOnUse">
<stop stop-color="#18B9E9"/>
<stop offset="0.65" stop-color="#5572FD"/>
<stop offset="1" stop-color="#3759F2"/>
</linearGradient>
<linearGradient id="paint1_linear_1020_3756" x1="10" y1="8" x2="44" y2="8" gradientUnits="userSpaceOnUse">
<stop stop-color="#18B9E9"/>
<stop offset="0.65" stop-color="#5572FD"/>
<stop offset="1" stop-color="#3759F2"/>
</linearGradient>
<linearGradient id="paint2_linear_1020_3756" x1="-4.68322e-08" y1="33" x2="44" y2="33" gradientUnits="userSpaceOnUse">
<stop stop-color="#18B9E9"/>
<stop offset="0.65" stop-color="#5572FD"/>
<stop offset="1" stop-color="#3759F2"/>
</linearGradient>
<linearGradient id="paint3_linear_1020_3756" x1="-5.36442e-08" y1="6" x2="12" y2="6" gradientUnits="userSpaceOnUse">
<stop stop-color="#18B9E9"/>
<stop offset="0.65" stop-color="#5572FD"/>
<stop offset="1" stop-color="#3759F2"/>
</linearGradient>
<linearGradient id="paint4_linear_1020_3756" x1="17" y1="8.5" x2="37" y2="8.5" gradientUnits="userSpaceOnUse">
<stop stop-color="#18B9E9"/>
<stop offset="0.65" stop-color="#5572FD"/>
<stop offset="1" stop-color="#3759F2"/>
</linearGradient>
<linearGradient id="paint5_linear_1020_3756" x1="-nan" y1="-nan" x2="-nan" y2="-nan" gradientUnits="userSpaceOnUse">
<stop stop-color="#18B9E9"/>
<stop offset="0.65" stop-color="#5572FD"/>
<stop offset="1" stop-color="#3759F2"/>
</linearGradient>
<linearGradient id="paint6_linear_1020_3756" x1="-nan" y1="-nan" x2="-nan" y2="-nan" gradientUnits="userSpaceOnUse">
<stop stop-color="#18B9E9"/>
<stop offset="0.65" stop-color="#5572FD"/>
<stop offset="1" stop-color="#3759F2"/>
</linearGradient>
<linearGradient id="paint7_linear_1020_3756" x1="-nan" y1="-nan" x2="-nan" y2="-nan" gradientUnits="userSpaceOnUse">
<stop stop-color="#18B9E9"/>
<stop offset="0.65" stop-color="#5572FD"/>
<stop offset="1" stop-color="#3759F2"/>
</linearGradient>
<linearGradient id="paint8_linear_1020_3756" x1="-nan" y1="-nan" x2="-nan" y2="-nan" gradientUnits="userSpaceOnUse">
<stop stop-color="#18B9E9"/>
<stop offset="0.65" stop-color="#5572FD"/>
<stop offset="1" stop-color="#3759F2"/>
</linearGradient>
<linearGradient id="paint9_linear_1020_3756" x1="-nan" y1="-nan" x2="-nan" y2="-nan" gradientUnits="userSpaceOnUse">
<stop stop-color="#18B9E9"/>
<stop offset="0.65" stop-color="#5572FD"/>
<stop offset="1" stop-color="#3759F2"/>
</linearGradient>
<linearGradient id="paint10_linear_1020_3756" x1="31.5571" y1="29.7001" x2="54.9971" y2="29.7001" gradientUnits="userSpaceOnUse">
<stop stop-color="#18B9E9"/>
<stop offset="0.65" stop-color="#5572FD"/>
<stop offset="1" stop-color="#3759F2"/>
</linearGradient>
<linearGradient id="paint11_linear_1020_3756" x1="36.4531" y1="29.7001" x2="50.1131" y2="29.7001" gradientUnits="userSpaceOnUse">
<stop stop-color="#18B9E9"/>
<stop offset="0.65" stop-color="#5572FD"/>
<stop offset="1" stop-color="#3759F2"/>
</linearGradient>
<clipPath id="clip0_1020_3756">
<rect width="55" height="56" fill="white"/>
</clipPath>
</defs>
</svg>
