<svg width="52" height="61" viewBox="0 0 52 61" fill="none" xmlns="http://www.w3.org/2000/svg">
<g clip-path="url(#clip0_1020_3804)">
<path d="M36.9231 17.4001C40.1531 16.9401 37.8432 25.2201 35.7732 25.4501C33.4732 33.7401 27.7232 35.1201 25.6532 35.1201C23.5832 35.1201 17.8232 33.7401 15.5232 25.4501C13.4532 25.2201 11.1532 16.9401 14.3732 17.4501C12.5332 11.2301 14.3732 8.45014 15.5232 6.86014C15.5232 6.86014 23.3432 -4.87986 33.5232 5.02014C38.0632 4.74014 38.7731 11.1801 36.9231 17.4001Z" stroke="url(#paint0_linear_1020_3804)" stroke-width="2" stroke-linecap="round" stroke-linejoin="round"/>
<path d="M25.6306 59.6698C35.7506 59.6698 45.1906 56.5198 49.5706 53.9898C50.0561 51.4657 50.2939 48.9002 50.2806 46.3298C50.2556 44.9191 49.8357 43.5436 49.0686 42.3593C48.3015 41.1751 47.2178 40.2295 45.9406 39.6298L35.3006 34.6298C35.1865 34.5737 35.0614 34.5433 34.9342 34.5407C34.8071 34.5381 34.6809 34.5635 34.5646 34.615C34.4482 34.6665 34.3446 34.7428 34.261 34.8387C34.1774 34.9346 34.1158 35.0476 34.0806 35.1698L29.0806 51.2298C29.0806 51.2298 26.7806 45.4698 27.0806 45.1698C27.6842 43.8536 28.1857 42.4929 28.5806 41.0998L26.0506 38.5698C25.9274 38.4501 25.7624 38.3831 25.5906 38.3831C25.4188 38.3831 25.2538 38.4501 25.1306 38.5698L22.6606 41.0998C23.0601 42.4915 23.5614 43.8518 24.1606 45.1698C24.5006 45.4698 22.1606 51.2298 22.1606 51.2298L17.1606 35.1698C17.1228 35.0562 17.0622 34.9514 16.9825 34.862C16.9028 34.7726 16.8056 34.7004 16.697 34.6498C16.5884 34.5993 16.4706 34.5714 16.3509 34.568C16.2311 34.5645 16.112 34.5856 16.0006 34.6298L5.36064 39.6298C4.07897 40.2257 2.9906 41.1698 2.21968 42.3545C1.44877 43.5392 1.02636 44.9167 1.00064 46.3298C0.985869 48.904 1.22705 51.4733 1.72064 53.9998C6.09064 56.5298 15.5406 59.6798 25.6606 59.6798L25.6306 59.6698Z" stroke="url(#paint1_linear_1020_3804)" stroke-width="2" stroke-linecap="round" stroke-linejoin="round"/>
</g>
<defs>
<linearGradient id="paint0_linear_1020_3804" x1="39.1332" y1="22.1101" x2="11.6932" y2="13.9001" gradientUnits="userSpaceOnUse">
<stop stop-color="#18B9E9"/>
<stop offset="0.65" stop-color="#5572FD"/>
<stop offset="1" stop-color="#3759F2"/>
</linearGradient>
<linearGradient id="paint1_linear_1020_3804" x1="50.5206" y1="54.3198" x2="1.65064" y2="39.7098" gradientUnits="userSpaceOnUse">
<stop stop-color="#18B9E9"/>
<stop offset="0.65" stop-color="#5572FD"/>
<stop offset="1" stop-color="#3759F2"/>
</linearGradient>
<clipPath id="clip0_1020_3804">
<rect width="51.28" height="60.67" fill="white"/>
</clipPath>
</defs>
</svg>
