<svg width="62" height="60" viewBox="0 0 62 60" fill="none" xmlns="http://www.w3.org/2000/svg">
<g clip-path="url(#clip0_1020_3789)">
<path d="M54.4994 51.0498C54.2894 51.2698 54.0794 51.4798 53.8594 51.6898" stroke="url(#paint0_linear_1020_3789)" stroke-width="2" stroke-linecap="round" stroke-linejoin="round"/>
<path d="M35.3781 32.6999L32.0781 29.6699" stroke="url(#paint1_linear_1020_3789)" stroke-width="2" stroke-linecap="round" stroke-linejoin="round"/>
<path d="M46.5391 26.54L40.2891 32.62" stroke="url(#paint2_linear_1020_3789)" stroke-width="2" stroke-linecap="round" stroke-linejoin="round"/>
<path d="M33 7C33.12 7 33 12.3 33 12.3" stroke="url(#paint3_linear_1020_3789)" stroke-width="2" stroke-linecap="round" stroke-linejoin="round"/>
<path d="M42.6602 7C42.7802 7 42.6602 12.3 42.6602 12.3" stroke="url(#paint4_linear_1020_3789)" stroke-width="2" stroke-linecap="round" stroke-linejoin="round"/>
<path d="M10.1602 21.2402H19.0102" stroke="url(#paint5_linear_1020_3789)" stroke-width="2" stroke-linecap="round" stroke-linejoin="round"/>
<path d="M1.71875 28.23H15.6987" stroke="url(#paint6_linear_1020_3789)" stroke-width="2" stroke-linecap="round" stroke-linejoin="round"/>
<path d="M7.75 35.2202H14.49" stroke="url(#paint7_linear_1020_3789)" stroke-width="2" stroke-linecap="round" stroke-linejoin="round"/>
<path d="M6.30078 42.2002H15.9408" stroke="url(#paint8_linear_1020_3789)" stroke-width="2" stroke-linecap="round" stroke-linejoin="round"/>
<path d="M1 42.2002H2.2" stroke="url(#paint9_linear_1020_3789)" stroke-width="2" stroke-linecap="round" stroke-linejoin="round"/>
<path d="M50.1897 54.5498C45.3802 57.5685 39.6268 58.7083 34.0297 57.7512C28.4326 56.7941 23.3848 53.8073 19.8517 49.3621C16.3186 44.9168 14.5482 39.3251 14.8791 33.6564C15.21 27.9878 17.619 22.64 21.6453 18.6361C25.6716 14.6321 31.0327 12.2529 36.7031 11.9535C42.3735 11.6541 47.9553 13.4556 52.3808 17.0134C56.8063 20.5712 59.765 25.6356 60.691 31.2379C61.6169 36.8402 60.4451 42.5872 57.3997 47.3798" stroke="url(#paint10_linear_1020_3789)" stroke-width="2" stroke-linecap="round" stroke-linejoin="round"/>
<path d="M37.8691 52.8099C47.7163 52.8099 55.6991 44.8271 55.6991 34.9799C55.6991 25.1327 47.7163 17.1499 37.8691 17.1499C28.0218 17.1499 20.0391 25.1327 20.0391 34.9799C20.0391 44.8271 28.0218 52.8099 37.8691 52.8099Z" stroke="url(#paint11_linear_1020_3789)" stroke-width="2" stroke-linecap="round" stroke-linejoin="round"/>
<path d="M42.5702 1H33.1702C31.5078 1 30.1602 2.34762 30.1602 4.01C30.1602 5.67238 31.5078 7.02 33.1702 7.02H42.5702C44.2325 7.02 45.5802 5.67238 45.5802 4.01C45.5802 2.34762 44.2325 1 42.5702 1Z" stroke="url(#paint12_linear_1020_3789)" stroke-width="2" stroke-linecap="round" stroke-linejoin="round"/>
<path d="M37.87 38.3499C39.7312 38.3499 41.24 36.8411 41.24 34.9799C41.24 33.1187 39.7312 31.6099 37.87 31.6099C36.0088 31.6099 34.5 33.1187 34.5 34.9799C34.5 36.8411 36.0088 38.3499 37.87 38.3499Z" stroke="url(#paint13_linear_1020_3789)" stroke-width="2" stroke-linecap="round" stroke-linejoin="round"/>
</g>
<defs>
<linearGradient id="paint0_linear_1020_3789" x1="55.3494" y1="51.7198" x2="53.0194" y2="51.0198" gradientUnits="userSpaceOnUse">
<stop stop-color="#18B9E9"/>
<stop offset="0.65" stop-color="#5572FD"/>
<stop offset="1" stop-color="#3759F2"/>
</linearGradient>
<linearGradient id="paint1_linear_1020_3789" x1="36.6181" y1="32.0499" x2="30.8481" y2="30.3199" gradientUnits="userSpaceOnUse">
<stop stop-color="#18B9E9"/>
<stop offset="0.65" stop-color="#5572FD"/>
<stop offset="1" stop-color="#3759F2"/>
</linearGradient>
<linearGradient id="paint2_linear_1020_3789" x1="46.4091" y1="30.48" x2="40.4191" y2="28.69" gradientUnits="userSpaceOnUse">
<stop stop-color="#18B9E9"/>
<stop offset="0.65" stop-color="#5572FD"/>
<stop offset="1" stop-color="#3759F2"/>
</linearGradient>
<linearGradient id="paint3_linear_1020_3789" x1="34.71" y1="10.18" x2="31.34" y2="9.17" gradientUnits="userSpaceOnUse">
<stop stop-color="#18B9E9"/>
<stop offset="0.65" stop-color="#5572FD"/>
<stop offset="1" stop-color="#3759F2"/>
</linearGradient>
<linearGradient id="paint4_linear_1020_3789" x1="44.3402" y1="10.18" x2="40.9802" y2="9.17" gradientUnits="userSpaceOnUse">
<stop stop-color="#18B9E9"/>
<stop offset="0.65" stop-color="#5572FD"/>
<stop offset="1" stop-color="#3759F2"/>
</linearGradient>
<linearGradient id="paint5_linear_1020_3789" x1="-nan" y1="-nan" x2="-nan" y2="-nan" gradientUnits="userSpaceOnUse">
<stop stop-color="#18B9E9"/>
<stop offset="0.65" stop-color="#5572FD"/>
<stop offset="1" stop-color="#3759F2"/>
</linearGradient>
<linearGradient id="paint6_linear_1020_3789" x1="-nan" y1="-nan" x2="-nan" y2="-nan" gradientUnits="userSpaceOnUse">
<stop stop-color="#18B9E9"/>
<stop offset="0.65" stop-color="#5572FD"/>
<stop offset="1" stop-color="#3759F2"/>
</linearGradient>
<linearGradient id="paint7_linear_1020_3789" x1="-nan" y1="-nan" x2="-nan" y2="-nan" gradientUnits="userSpaceOnUse">
<stop stop-color="#18B9E9"/>
<stop offset="0.65" stop-color="#5572FD"/>
<stop offset="1" stop-color="#3759F2"/>
</linearGradient>
<linearGradient id="paint8_linear_1020_3789" x1="-nan" y1="-nan" x2="-nan" y2="-nan" gradientUnits="userSpaceOnUse">
<stop stop-color="#18B9E9"/>
<stop offset="0.65" stop-color="#5572FD"/>
<stop offset="1" stop-color="#3759F2"/>
</linearGradient>
<linearGradient id="paint9_linear_1020_3789" x1="-nan" y1="-nan" x2="-nan" y2="-nan" gradientUnits="userSpaceOnUse">
<stop stop-color="#18B9E9"/>
<stop offset="0.65" stop-color="#5572FD"/>
<stop offset="1" stop-color="#3759F2"/>
</linearGradient>
<linearGradient id="paint10_linear_1020_3789" x1="60.9897" y1="41.8898" x2="14.7397" y2="28.0598" gradientUnits="userSpaceOnUse">
<stop stop-color="#18B9E9"/>
<stop offset="0.65" stop-color="#5572FD"/>
<stop offset="1" stop-color="#3759F2"/>
</linearGradient>
<linearGradient id="paint11_linear_1020_3789" x1="55.9091" y1="40.3699" x2="19.8191" y2="29.5799" gradientUnits="userSpaceOnUse">
<stop stop-color="#18B9E9"/>
<stop offset="0.65" stop-color="#5572FD"/>
<stop offset="1" stop-color="#3759F2"/>
</linearGradient>
<linearGradient id="paint12_linear_1020_3789" x1="46.0302" y1="6.45" x2="29.7102" y2="1.57" gradientUnits="userSpaceOnUse">
<stop stop-color="#18B9E9"/>
<stop offset="0.65" stop-color="#5572FD"/>
<stop offset="1" stop-color="#3759F2"/>
</linearGradient>
<linearGradient id="paint13_linear_1020_3789" x1="42.06" y1="36.2299" x2="33.68" y2="33.7199" gradientUnits="userSpaceOnUse">
<stop stop-color="#18B9E9"/>
<stop offset="0.65" stop-color="#5572FD"/>
<stop offset="1" stop-color="#3759F2"/>
</linearGradient>
<clipPath id="clip0_1020_3789">
<rect width="62" height="59.11" fill="white"/>
</clipPath>
</defs>
</svg>
