<svg width="149" height="112" viewBox="0 0 149 112" fill="none" xmlns="http://www.w3.org/2000/svg">
<g clip-path="url(#clip0_1020_3532)">
<path d="M148.43 32.0498H107.17V79.7698H148.43L139.62 55.9098L148.43 32.0498ZM8.82 55.9098L0 79.7698H41.26V32.0498H0L8.82 55.9098Z" fill="#F5BF3E"/>
<path d="M74.7301 4.52005L79.5101 0.200052C79.588 0.127444 79.6804 0.0722418 79.7812 0.0381155C79.882 0.00398933 79.989 -0.00827891 80.0949 0.00212654C80.2009 0.012532 80.3034 0.0453727 80.3957 0.0984651C80.4879 0.151557 80.5679 0.223685 80.6301 0.310052L84.4101 5.54005C84.5209 5.69308 84.6847 5.79936 84.8695 5.83819C85.0544 5.87701 85.2471 5.84559 85.4101 5.75005L91.0001 2.51005C91.093 2.45742 91.1958 2.42468 91.302 2.4139C91.4082 2.40313 91.5155 2.41457 91.6171 2.44748C91.7187 2.48039 91.8123 2.53407 91.892 2.60509C91.9717 2.67612 92.0357 2.76294 92.0801 2.86005L94.6901 8.75005C94.7615 8.92373 94.8963 9.06375 95.0672 9.14174C95.238 9.21972 95.4321 9.22985 95.6101 9.17005L101.74 7.17005C101.843 7.13521 101.952 7.12259 102.061 7.13301C102.169 7.14343 102.274 7.17666 102.368 7.23051C102.463 7.28436 102.545 7.35761 102.609 7.44543C102.673 7.53326 102.718 7.63367 102.74 7.74005L104 14.0001C104.039 14.1855 104.145 14.3499 104.299 14.4609C104.452 14.5718 104.642 14.6215 104.83 14.6001L111.23 13.9101C111.336 13.9004 111.443 13.9128 111.544 13.9465C111.645 13.9802 111.738 14.0345 111.817 14.1059C111.896 14.1773 111.959 14.2643 112.003 14.3614C112.046 14.4585 112.069 14.5636 112.07 14.6701V21.1101C112.069 21.2985 112.138 21.4806 112.264 21.621C112.389 21.7615 112.563 21.8502 112.75 21.8701L119.16 22.5301C119.266 22.5403 119.368 22.5728 119.461 22.6256C119.553 22.6784 119.633 22.7502 119.695 22.8363C119.758 22.9223 119.801 23.0206 119.823 23.1247C119.844 23.2288 119.843 23.3363 119.82 23.4401L118.47 29.7401C118.431 29.9238 118.462 30.1154 118.556 30.2779C118.65 30.4404 118.801 30.5623 118.98 30.6201L125.11 32.6201C125.208 32.6521 125.299 32.7042 125.376 32.7729C125.453 32.8417 125.515 32.9257 125.559 33.0196C125.602 33.1134 125.625 33.2153 125.627 33.3186C125.629 33.4219 125.61 33.5246 125.57 33.6201L122.94 39.5101C122.895 39.5961 122.867 39.6902 122.858 39.787C122.849 39.8838 122.859 39.9814 122.888 40.0743C122.917 40.1672 122.963 40.2534 123.026 40.3282C123.088 40.403 123.164 40.4648 123.25 40.5101L128.84 43.7201C128.933 43.7737 129.013 43.8462 129.076 43.933C129.138 44.0198 129.182 44.1188 129.204 44.2236C129.225 44.3284 129.225 44.4366 129.202 44.5411C129.179 44.6456 129.134 44.7441 129.07 44.8301L125.27 50.0301C125.165 50.1822 125.119 50.3669 125.139 50.5505C125.159 50.7341 125.245 50.9043 125.38 51.0301L130.18 55.3401C130.261 55.4095 130.325 55.4955 130.369 55.5921C130.413 55.6888 130.436 55.7938 130.436 55.9001C130.436 56.0063 130.413 56.1113 130.369 56.208C130.325 56.3046 130.261 56.3906 130.18 56.4601L125.38 60.7701C125.245 60.8958 125.159 61.066 125.139 61.2496C125.119 61.4332 125.165 61.6179 125.27 61.7701L129.07 66.9701C129.134 67.0561 129.179 67.1545 129.202 67.259C129.225 67.3636 129.225 67.4717 129.204 67.5765C129.182 67.6813 129.138 67.7803 129.076 67.8671C129.013 67.9539 128.933 68.0264 128.84 68.0801L123.25 71.2901C123.078 71.3834 122.95 71.5402 122.892 71.727C122.834 71.9138 122.851 72.1159 122.94 72.2901L125.57 78.1701C125.61 78.2655 125.629 78.3682 125.627 78.4715C125.625 78.5748 125.602 78.6767 125.559 78.7706C125.515 78.8644 125.453 78.9484 125.376 79.0172C125.299 79.0859 125.208 79.138 125.11 79.1701L118.98 81.1701C118.801 81.2278 118.65 81.3497 118.556 81.5122C118.462 81.6747 118.431 81.8663 118.47 82.0501L119.82 88.3501C119.843 88.4538 119.844 88.5613 119.823 88.6654C119.801 88.7695 119.758 88.8678 119.695 88.9538C119.633 89.0399 119.553 89.1117 119.461 89.1645C119.368 89.2173 119.266 89.2499 119.16 89.2601L112.75 89.9201C112.563 89.9399 112.389 90.0286 112.264 90.1691C112.138 90.3095 112.069 90.4916 112.07 90.6801V97.1201C112.069 97.2265 112.046 97.3316 112.003 97.4287C111.959 97.5258 111.896 97.6128 111.817 97.6842C111.738 97.7556 111.645 97.8099 111.544 97.8436C111.443 97.8773 111.336 97.8897 111.23 97.8801L104.83 97.1901C104.642 97.1709 104.454 97.2214 104.301 97.3321C104.148 97.4427 104.041 97.6057 104 97.7901L102.68 104.09C102.659 104.197 102.615 104.299 102.551 104.387C102.488 104.476 102.406 104.55 102.311 104.604C102.216 104.658 102.11 104.691 102.001 104.701C101.893 104.711 101.783 104.697 101.68 104.66L95.5501 102.66C95.3721 102.6 95.178 102.61 95.0072 102.688C94.8363 102.766 94.7015 102.906 94.6301 103.08L92.0501 109C92.0057 109.097 91.9417 109.184 91.862 109.255C91.7823 109.326 91.6887 109.38 91.5871 109.413C91.4855 109.446 91.3782 109.457 91.272 109.446C91.1658 109.435 91.063 109.403 90.9701 109.35L85.4001 106.11C85.2366 106.013 85.0423 105.982 84.8567 106.023C84.6711 106.064 84.5079 106.173 84.4001 106.33L80.6201 111.55C80.5576 111.636 80.4779 111.708 80.386 111.761C80.2942 111.814 80.1922 111.847 80.0867 111.858C79.9812 111.87 79.8745 111.859 79.7735 111.826C79.6724 111.794 79.5793 111.741 79.5001 111.67L74.7201 107.34C74.5816 107.219 74.404 107.152 74.2201 107.152C74.0362 107.152 73.8586 107.219 73.7201 107.34L68.9401 111.67C68.8609 111.741 68.7678 111.794 68.6667 111.826C68.5657 111.859 68.459 111.87 68.3535 111.858C68.248 111.847 68.146 111.814 68.0542 111.761C67.9623 111.708 67.8826 111.636 67.8201 111.55L64.0001 106.29C63.8894 106.137 63.7263 106.03 63.542 105.99C63.3576 105.949 63.1648 105.978 63.0001 106.07L57.4301 109.31C57.338 109.363 57.2359 109.395 57.1304 109.406C57.0249 109.417 56.9184 109.405 56.8176 109.372C56.7168 109.339 56.624 109.285 56.5452 109.214C56.4665 109.144 56.4034 109.057 56.3601 108.96L53.7501 103.07C53.6748 102.897 53.5379 102.758 53.3661 102.681C53.1942 102.603 52.9996 102.592 52.8201 102.65L46.6901 104.65C46.5872 104.688 46.4772 104.704 46.3678 104.695C46.2584 104.686 46.1522 104.653 46.0568 104.599C45.9615 104.544 45.8792 104.47 45.8158 104.38C45.7525 104.291 45.7095 104.188 45.6901 104.08L44.3601 97.7801C44.3216 97.5965 44.2165 97.4336 44.0651 97.3229C43.9137 97.2121 43.7267 97.1612 43.5401 97.1801L37.1301 97.8701C37.0241 97.8797 36.9172 97.8673 36.8163 97.8336C36.7153 97.7999 36.6224 97.7456 36.5435 97.6742C36.4645 97.6028 36.4013 97.5158 36.3576 97.4187C36.314 97.3216 36.291 97.2165 36.2901 97.1101V90.6701C36.2889 90.4822 36.2192 90.3013 36.0939 90.1613C35.9687 90.0214 35.7966 89.932 35.6101 89.9101L29.1901 89.2501C29.0849 89.2383 28.9834 89.2048 28.8919 89.1516C28.8004 89.0983 28.7211 89.0266 28.659 88.9409C28.5968 88.8553 28.5533 88.7576 28.5311 88.6541C28.5089 88.5506 28.5086 88.4437 28.5301 88.34L30.0001 82.0501C30.0417 81.8674 30.0134 81.6758 29.9209 81.513C29.8284 81.3502 29.6783 81.2278 29.5001 81.1701L23.3601 79.1701C23.2627 79.1367 23.1731 79.0839 23.0968 79.0149C23.0204 78.9459 22.9588 78.8621 22.9158 78.7686C22.8728 78.6751 22.8492 78.5738 22.8465 78.471C22.8438 78.3681 22.862 78.2657 22.9001 78.1701L25.5401 72.2901C25.6257 72.1142 25.6401 71.9122 25.5805 71.7259C25.5209 71.5397 25.3918 71.3836 25.2201 71.2901L19.5901 68.1001C19.499 68.0463 19.4201 67.9742 19.3584 67.8882C19.2968 67.8023 19.2537 67.7044 19.2321 67.6009C19.2104 67.4973 19.2106 67.3904 19.2327 67.2869C19.2547 67.1835 19.2981 67.0858 19.3601 67.0001L23.1601 61.8001C23.2668 61.6486 23.3145 61.4634 23.2942 61.2792C23.274 61.0951 23.1872 60.9247 23.0501 60.8001L18.2501 56.4901C18.1725 56.4189 18.1106 56.3323 18.0682 56.2359C18.0258 56.1395 18.0039 56.0354 18.0039 55.9301C18.0039 55.8247 18.0258 55.7206 18.0682 55.6242C18.1106 55.5278 18.1725 55.4412 18.2501 55.3701L23.0501 51.0001C23.1872 50.8754 23.274 50.705 23.2942 50.5209C23.3145 50.3367 23.2668 50.1515 23.1601 50.0001L19.3601 44.8001C19.2964 44.7141 19.2516 44.6156 19.2286 44.5111C19.2056 44.4066 19.205 44.2984 19.2267 44.1936C19.2484 44.0888 19.292 43.9898 19.3546 43.903C19.4172 43.8162 19.4975 43.7437 19.5901 43.6901L25.1801 40.4801C25.3537 40.3884 25.4844 40.2323 25.5443 40.0454C25.6041 39.8584 25.5882 39.6555 25.5001 39.4801L22.8601 33.5901C22.822 33.4944 22.8038 33.392 22.8065 33.2892C22.8092 33.1863 22.8328 33.085 22.8758 32.9915C22.9188 32.898 22.9804 32.8142 23.0567 32.7452C23.1331 32.6762 23.2227 32.6234 23.3201 32.5901L29.4601 30.5901C29.6396 30.5343 29.7912 30.4123 29.8841 30.2489C29.9769 30.0855 30.0041 29.8928 29.9601 29.7101L28.6101 23.4101C28.5886 23.3064 28.5889 23.1995 28.6111 23.096C28.6333 22.9925 28.6768 22.8948 28.739 22.8092C28.8011 22.7235 28.8804 22.6518 28.9719 22.5985C29.0634 22.5453 29.1649 22.5118 29.2701 22.5001L35.6901 21.8401C35.8766 21.8181 36.0487 21.7287 36.1739 21.5888C36.2992 21.4488 36.3689 21.2679 36.3701 21.0801V14.6401C36.371 14.5336 36.394 14.4285 36.4377 14.3314C36.4813 14.2343 36.5445 14.1473 36.6235 14.0759C36.7024 14.0045 36.7953 13.9502 36.8963 13.9165C36.9972 13.8828 37.1041 13.8704 37.2101 13.8801L43.6201 14.5701C43.8071 14.5912 43.9953 14.5412 44.1472 14.4301C44.2991 14.3189 44.4036 14.1547 44.4401 13.9701L45.7701 7.67005C45.7911 7.56285 45.835 7.46144 45.8988 7.37273C45.9625 7.28403 46.0446 7.21011 46.1395 7.15601C46.2344 7.10191 46.3399 7.06891 46.4487 7.05925C46.5575 7.0496 46.6671 7.06351 46.7701 7.10005L52.9001 9.10005C53.0796 9.15791 53.2742 9.14697 53.4461 9.06934C53.6179 8.99172 53.7548 8.85297 53.8301 8.68005L56.4401 2.79005C56.4834 2.69326 56.5465 2.60661 56.6252 2.53565C56.704 2.4647 56.7968 2.41101 56.8976 2.37805C56.9984 2.34508 57.1049 2.33357 57.2104 2.34425C57.3159 2.35493 57.418 2.38756 57.5101 2.44005L63.0001 5.75005C63.1642 5.84122 63.3556 5.87017 63.5393 5.8316C63.7229 5.79302 63.8866 5.68951 64.0001 5.54005L67.8101 0.310052C67.8723 0.223685 67.9523 0.151557 68.0445 0.0984651C68.1368 0.0453727 68.2393 0.012532 68.3453 0.00212654C68.4512 -0.00827891 68.5582 0.00398933 68.659 0.0381155C68.7598 0.0722418 68.8522 0.127444 68.9301 0.200052L73.7101 4.52005C73.8498 4.64654 74.0316 4.71658 74.2201 4.71658C74.4086 4.71658 74.5904 4.64654 74.7301 4.52005Z" fill="white"/>
<path d="M74.2211 100.51C98.853 100.51 118.821 80.542 118.821 55.9101C118.821 31.2782 98.853 11.3101 74.2211 11.3101C49.5892 11.3101 29.6211 31.2782 29.6211 55.9101C29.6211 80.542 49.5892 100.51 74.2211 100.51Z" fill="#F5BF3E"/>
<path d="M74.2195 88.86C92.4173 88.86 107.17 74.1077 107.17 55.91C107.17 37.7122 92.4173 22.96 74.2195 22.96C56.0217 22.96 41.2695 37.7122 41.2695 55.91C41.2695 74.1077 56.0217 88.86 74.2195 88.86Z" fill="white"/>
<path d="M74.2205 37.27L80.0105 49L92.9605 50.88L83.5905 60.02L85.8005 72.92L74.2205 66.83L62.6305 72.92L64.8505 60.02L55.4805 50.88L68.4305 49L74.2205 37.27Z" fill="#F5BF3E"/>
</g>
<defs>
<clipPath id="clip0_1020_3532">
<rect width="148.43" height="111.82" fill="white"/>
</clipPath>
</defs>
</svg>
