<svg width="111" height="112" viewBox="0 0 111 112" fill="none" xmlns="http://www.w3.org/2000/svg">
<g clip-path="url(#clip0_1020_3939)">
<path d="M74.0034 111.69H12.8334C12.6334 111.69 12.4234 111.63 12.2234 111.63C8.97344 111.63 5.72344 111.54 2.48344 111.48C0.853438 111.48 0.483438 111.07 0.333438 109.48C0.193438 107.36 0.0634375 105.24 0.0534375 103.12C0.0134375 89.7868 0.0134375 76.4535 0.0534375 63.1201C0.0534375 58.1201 0.193438 53.2001 0.253438 48.2501C0.222092 47.9448 0.275508 47.6367 0.407818 47.3597C0.540128 47.0828 0.746214 46.8476 1.00344 46.6801C1.51344 46.3701 2.00344 45.9601 2.46344 45.6801L22.0634 32.8601C22.5934 32.5101 23.3234 32.2601 23.5934 31.7701C23.8634 31.2801 23.6534 30.5201 23.6734 29.8901C23.7234 28.7401 23.7434 27.6001 23.8834 26.4601C23.9239 26.0607 24.1069 25.6893 24.3989 25.4139C24.6909 25.1384 25.0724 24.9773 25.4734 24.9601C25.8614 24.9065 26.252 24.8732 26.6434 24.8601C29.9534 24.8601 33.2534 24.7901 36.5534 24.7301C36.906 24.7118 37.249 24.6089 37.5534 24.4301C41.9234 21.7201 46.2734 18.9701 50.6434 16.2701C52.1934 15.2701 53.7934 14.4501 55.3634 13.5401C55.6634 13.3531 56.0099 13.2539 56.3634 13.2539C56.717 13.2539 57.0634 13.3531 57.3634 13.5401C58.0934 13.9501 58.8734 14.3001 59.5834 14.7501C64.7534 17.9401 69.9034 21.1701 75.0834 24.3601C75.4608 24.5818 75.8863 24.7087 76.3234 24.7301C79.1034 24.8301 81.8834 24.8601 84.6534 24.9901C86.1934 25.0601 86.7234 25.6401 86.8134 27.1701C86.9034 28.7001 86.9534 30.0601 86.9934 31.5001C86.9856 31.6726 87.0265 31.8437 87.1114 31.994C87.1963 32.1444 87.3217 32.2677 87.4734 32.3501C92.1334 35.3501 96.8034 38.3501 101.473 41.3501C104.193 43.1201 106.853 44.9801 109.553 46.7901C109.759 46.9178 109.926 47.0985 110.037 47.3133C110.147 47.5281 110.198 47.7689 110.183 48.0101C110.183 50.5601 110.273 53.1201 110.323 55.6701C110.323 56.1901 110.323 56.6701 110.393 57.2401V110.24C110.081 110.553 109.791 110.888 109.523 111.24C109.398 111.42 109.228 111.563 109.029 111.656C108.831 111.749 108.612 111.789 108.393 111.77C97.1468 111.77 85.9001 111.77 74.6534 111.77C74.4634 111.63 74.2434 111.67 74.0034 111.69ZM28.2234 29.6201C28.2234 30.0401 28.2234 30.4001 28.2234 30.7501C28.2234 42.2968 28.2234 53.8435 28.2234 65.3901C28.2234 70.8401 28.2234 76.2901 28.2234 81.7301C28.2052 81.9209 28.2464 82.1126 28.3412 82.279C28.4361 82.4455 28.5801 82.5786 28.7534 82.6601C29.7534 83.2201 30.7534 83.8501 31.6934 84.4401C32.6334 85.0301 33.6934 85.6301 34.7534 86.2101C34.9974 86.3739 35.2846 86.4614 35.5784 86.4614C35.8723 86.4614 36.1595 86.3739 36.4034 86.2101C37.1834 85.7301 38.0034 85.3101 38.8034 84.8601C43.5934 82.2001 48.3834 79.5601 53.1634 76.8601C53.5045 76.6495 53.8975 76.5379 54.2984 76.5379C54.6993 76.5379 55.0923 76.6495 55.4334 76.8601L55.9334 77.1301L73.9334 86.9601C74.0654 87.0568 74.2248 87.1089 74.3884 87.1089C74.5521 87.1089 74.7114 87.0568 74.8434 86.9601C77.1934 85.5201 79.5634 84.1001 81.9334 82.6901C82.0874 82.6119 82.2138 82.4887 82.296 82.3369C82.3782 82.185 82.4122 82.0118 82.3934 81.8401C82.3934 64.5935 82.3934 47.3368 82.3934 30.0701V29.4001H81.5034C70.0834 29.4001 58.6634 29.4001 47.2434 29.4001C41.9734 29.4001 36.6934 29.4601 31.4234 29.5001C30.3734 29.5001 29.3234 29.5701 28.2234 29.6201ZM100.573 106.91V106.77L100.053 106.48L56.0034 82.4301C55.4234 82.1201 54.8334 81.6001 54.2534 81.6001C53.6734 81.6001 53.0834 82.1301 52.5134 82.4501L10.1134 106.57L9.79344 106.8V106.91H100.573ZM23.5734 37.3701L23.2934 37.4901C17.2334 41.3901 11.1768 45.2935 5.12344 49.2001C5.03681 49.2715 4.96557 49.3597 4.914 49.4594C4.86244 49.5591 4.83163 49.6682 4.82344 49.7801C4.76344 55.7401 4.71344 61.6935 4.67344 67.6401C4.65946 67.7787 4.68965 67.9181 4.7597 68.0384C4.82975 68.1588 4.93606 68.2539 5.06344 68.3101C5.85344 68.7701 6.63344 69.3101 7.42344 69.7401L23.0034 79.0801C23.1834 79.1801 23.3734 79.2701 23.6234 79.3901L23.5734 37.3701ZM87.0034 79.5101L87.5634 79.2101L90.8734 77.2101L105.253 68.4801C105.402 68.4126 105.527 68.3023 105.612 68.1634C105.698 68.0244 105.74 67.8631 105.733 67.7001C105.733 61.7001 105.733 55.7301 105.733 49.7901C105.727 49.6677 105.694 49.5481 105.637 49.4394C105.58 49.3308 105.5 49.2355 105.403 49.1601C99.4434 45.3201 93.4768 41.4935 87.5034 37.6801C87.3588 37.5934 87.2085 37.5165 87.0534 37.4501L87.0034 79.5101ZM105.633 73.8201L105.433 73.7201L79.0034 89.7301L105.653 104.27L105.633 73.8201ZM4.72344 73.4401V104.36L30.7234 89.4301C22.1234 83.8401 13.3634 78.8401 4.72344 73.4401ZM66.8234 24.5901C66.5634 24.4001 66.4534 24.3001 66.3334 24.2301C63.2134 22.2901 60.0834 20.3601 56.9734 18.4001C56.815 18.2761 56.6196 18.2086 56.4184 18.2086C56.2172 18.2086 56.0218 18.2761 55.8634 18.4001C52.7334 20.4001 49.5934 22.3201 46.4634 24.2801C46.3319 24.377 46.2082 24.484 46.0934 24.6001L66.8234 24.5901Z" fill="url(#paint0_linear_1020_3939)"/>
<path d="M30.2229 1.44C30.1142 1.10138 29.9258 0.793834 29.6734 0.543238C29.4211 0.292642 29.1123 0.106335 28.7729 0L28.0029 0L27.8529 0.08C26.0029 0.65 25.7129 1.21 26.2029 3C26.2217 3.07143 26.2451 3.14158 26.2729 3.21C27.8629 7.21 29.4429 11.14 31.0529 15.1C31.153 15.3412 31.3151 15.5517 31.5229 15.71C31.8418 16.0066 32.2521 16.186 32.6864 16.2187C33.1207 16.2514 33.5532 16.1355 33.9129 15.89C35.0229 14.89 35.3829 14.35 34.9129 13.21C33.3329 9.32 31.7829 5.38 30.2229 1.44ZM85.7129 0.33C85.387 0.219231 85.0526 0.135612 84.7129 0.08C83.7929 0.13 83.0929 0.18 82.7729 0.97C81.0862 5.20333 79.3996 9.43333 77.7129 13.66C77.614 13.8615 77.5858 14.0905 77.6329 14.31C78.3329 15.88 79.4229 16.89 81.1129 15.8C81.4497 15.5416 81.7091 15.1957 81.8629 14.8C83.0829 11.9 84.3029 9 85.4629 6.07C85.9557 4.79663 86.3698 3.49417 86.7029 2.17C86.7703 1.98459 86.7978 1.78703 86.7835 1.59027C86.7692 1.3935 86.7135 1.20197 86.62 1.02824C86.5266 0.85451 86.3974 0.702496 86.2411 0.582163C86.0848 0.461831 85.9048 0.375899 85.7129 0.33ZM108.003 15.46C107.583 15.2406 107.105 15.1592 106.636 15.2275C106.168 15.2957 105.733 15.51 105.393 15.84C102.424 18.4943 99.6219 21.3298 97.0029 24.33C96.8139 24.5161 96.6638 24.7379 96.5614 24.9826C96.459 25.2272 96.4062 25.4898 96.4062 25.755C96.4062 26.0202 96.459 26.2828 96.5614 26.5274C96.6638 26.7721 96.8139 26.9939 97.0029 27.18C97.3824 27.5864 97.899 27.8378 98.453 27.8858C99.007 27.9338 99.5591 27.775 100.003 27.44C100.409 27.1343 100.794 26.8001 101.153 26.44C103.153 24.48 105.133 22.51 107.093 20.53C107.693 19.92 108.273 19.27 108.813 18.6C109.009 18.3034 109.177 17.9886 109.313 17.66C109.348 17.2029 109.242 16.746 109.007 16.3521C108.772 15.9582 108.422 15.6466 108.003 15.46ZM8.76289 19.56C7.53289 18.32 6.26289 17.13 5.00289 15.94C4.79211 15.6998 4.52686 15.5137 4.22934 15.3971C3.93183 15.2805 3.61071 15.237 3.29289 15.27C2.89754 15.2147 2.49512 15.2954 2.15168 15.4989C1.80825 15.7024 1.5442 16.0166 1.40289 16.39C1.22113 16.7417 1.14786 17.1395 1.19236 17.533C1.23687 17.9264 1.39715 18.2977 1.65289 18.6C1.99984 19.1111 2.38423 19.5958 2.80289 20.05C4.80289 22.09 6.80289 24.1167 8.80289 26.13C9.31704 26.6512 9.87584 27.1263 10.4729 27.55C10.7887 27.7572 11.1515 27.8816 11.528 27.9117C11.9045 27.9419 12.2826 27.8767 12.6273 27.7223C12.9719 27.5679 13.2722 27.3292 13.5004 27.0282C13.7286 26.7272 13.8773 26.3736 13.9329 26C13.9862 25.6946 13.962 25.3808 13.8624 25.0872C13.7628 24.7937 13.591 24.5299 13.3629 24.32C11.8429 22.75 10.3229 21.14 8.76289 19.56ZM35.6529 52.63C35.7207 52.8976 35.8773 53.1344 36.0971 53.3015C36.3169 53.4686 36.5869 53.5562 36.8629 53.55C37.3729 53.55 37.8629 53.64 38.3829 53.64H52.0029V53.76H66.0029C66.409 53.7591 66.8019 53.6153 67.1127 53.3539C67.4235 53.0925 67.6325 52.73 67.7029 52.33C67.7716 52.001 67.8084 51.6661 67.8129 51.33C67.8129 46.6 67.8129 41.86 67.8129 37.13C67.8196 36.8886 67.7777 36.6483 67.6896 36.4235C67.6015 36.1986 67.4691 35.9938 67.3002 35.8212C67.1313 35.6485 66.9294 35.5117 66.7066 35.4187C66.4837 35.3257 66.2444 35.2786 66.0029 35.28C65.1029 35.22 64.2029 35.17 63.3029 35.17C56.9762 35.17 50.6429 35.17 44.3029 35.17C42.0629 35.17 39.8329 35.25 37.6029 35.31C37.3379 35.2794 37.0694 35.3043 36.8146 35.3831C36.5597 35.462 36.3241 35.5932 36.1228 35.7682C35.9214 35.9432 35.7588 36.1582 35.6452 36.3996C35.5315 36.6409 35.4695 36.9033 35.4629 37.17C35.3933 37.5194 35.3532 37.8739 35.3429 38.23C35.3429 42.45 35.3429 46.68 35.3429 50.9C35.3695 51.4878 35.4737 52.0695 35.6529 52.63ZM40.0029 39.83H63.4029V49.21H40.0029V39.83ZM72.0029 68.08H35.7829C35.5929 68.08 35.3929 68.08 35.2529 68.08V72.62H36.8429L58.4129 72.71H71.9829C72.3729 72.71 72.6229 72.71 72.6229 72.19C72.6229 71 72.6229 69.8 72.6229 68.61C72.6329 68.18 72.4129 68.08 71.9429 68.08H72.0029ZM35.2629 63.08H72.5429C72.6529 61.61 72.7729 60.19 72.8829 58.76H35.2029L35.2629 63.08Z" fill="#F5BF3E"/>
</g>
<defs>
<linearGradient id="paint0_linear_1020_3939" x1="0.0034375" y1="62.4401" x2="110.423" y2="62.4401" gradientUnits="userSpaceOnUse">
<stop stop-color="#18B9E9"/>
<stop offset="0.65" stop-color="#5572FD"/>
<stop offset="1" stop-color="#3759F2"/>
</linearGradient>
<clipPath id="clip0_1020_3939">
<rect width="110.42" height="111.69" fill="white"/>
</clipPath>
</defs>
</svg>
