<svg width="114" height="114" viewBox="0 0 114 114" fill="none" xmlns="http://www.w3.org/2000/svg">
<g clip-path="url(#clip0_1020_3900)">
<path d="M41.29 65.9999H38.71V63.4599C38.71 63.1947 38.6046 62.9403 38.4171 62.7528C38.2296 62.5652 37.9752 62.4599 37.71 62.4599C37.4448 62.4599 37.1904 62.5652 37.0029 62.7528C36.8154 62.9403 36.71 63.1947 36.71 63.4599V66.9999C36.71 67.2651 36.8154 67.5195 37.0029 67.707C37.1904 67.8945 37.4448 67.9999 37.71 67.9999H41.27C41.5352 67.9999 41.7896 67.8945 41.9771 67.707C42.1646 67.5195 42.27 67.2651 42.27 66.9999C42.27 66.7347 42.1646 66.4803 41.9771 66.2928C41.7896 66.1052 41.5352 65.9999 41.27 65.9999H41.29ZM46.23 32.3799H48.23V30.3799H46.23V32.3799ZM74.49 54.1799H67.38C67.1148 54.1799 66.8604 54.2852 66.6729 54.4728C66.4854 54.6603 66.38 54.9147 66.38 55.1799C66.38 55.4451 66.4854 55.6995 66.6729 55.887C66.8604 56.0745 67.1148 56.1799 67.38 56.1799H74.49C74.7552 56.1799 75.0096 56.0745 75.1971 55.887C75.3846 55.6995 75.49 55.4451 75.49 55.1799C75.49 54.9147 75.3846 54.6603 75.1971 54.4728C75.0096 54.2852 74.7552 54.1799 74.49 54.1799ZM57.89 44.6899H44.89C44.6248 44.6899 44.3704 44.7952 44.1829 44.9828C43.9954 45.1703 43.89 45.4247 43.89 45.6899C43.89 45.9551 43.9954 46.2095 44.1829 46.397C44.3704 46.5845 44.6248 46.6899 44.89 46.6899H57.89C58.1552 46.6899 58.4096 46.5845 58.5971 46.397C58.7846 46.2095 58.89 45.9551 58.89 45.6899C58.89 45.4247 58.7846 45.1703 58.5971 44.9828C58.4096 44.7952 58.1552 44.6899 57.89 44.6899ZM39.12 32.4199H41.12V30.4199H39.12V32.4199ZM57.89 39.9399H44.89C44.6248 39.9399 44.3704 40.0452 44.1829 40.2328C43.9954 40.4203 43.89 40.6747 43.89 40.9399C43.89 41.2051 43.9954 41.4595 44.1829 41.647C44.3704 41.8345 44.6248 41.9399 44.89 41.9399H57.89C58.1552 41.9399 58.4096 41.8345 58.5971 41.647C58.7846 41.4595 58.89 41.2051 58.89 40.9399C58.89 40.6747 58.7846 40.4203 58.5971 40.2328C58.4096 40.0452 58.1552 39.9399 57.89 39.9399ZM42.68 32.4199H44.68V30.4199H42.68V32.4199ZM79.24 54.1799C79.0422 54.1799 78.8489 54.2385 78.6844 54.3484C78.52 54.4583 78.3918 54.6145 78.3161 54.7972C78.2404 54.9799 78.2206 55.181 78.2592 55.375C78.2978 55.569 78.393 55.7471 78.5329 55.887C78.6727 56.0268 78.8509 56.1221 79.0449 56.1607C79.2389 56.1993 79.44 56.1794 79.6227 56.1038C79.8054 56.0281 79.9616 55.8999 80.0715 55.7355C80.1814 55.571 80.24 55.3777 80.24 55.1799C80.24 54.9147 80.1346 54.6603 79.9471 54.4728C79.7596 54.2852 79.5052 54.1799 79.24 54.1799ZM83.83 49.1799V49.1199V42.1199C83.8274 41.2305 83.4722 40.3784 82.8424 39.7505C82.2125 39.1225 81.3594 38.7699 80.47 38.7699H67.17V27.8799C67.17 27.6147 67.0646 27.3603 66.8771 27.1728C66.6896 26.9852 66.4352 26.8799 66.17 26.8799H36.54C36.2748 26.8799 36.0204 26.9852 35.8329 27.1728C35.6454 27.3603 35.54 27.6147 35.54 27.8799V38.7599H35.33C34.4458 38.7678 33.6004 39.1239 32.977 39.751C32.3536 40.3781 32.0026 41.2257 32 42.1099V69.3899C32.0026 70.2775 32.3564 71.1281 32.9841 71.7558C33.6118 72.3834 34.4623 72.7372 35.35 72.7399H51V76.0499H50.86C49.7191 76.44 48.7023 77.1261 47.9135 78.038C47.1246 78.9498 46.592 80.0548 46.37 81.2399V81.3999H44.84C44.5748 81.3999 44.3204 81.5052 44.1329 81.6928C43.9454 81.8803 43.84 82.1347 43.84 82.3999C43.84 82.6651 43.9454 82.9195 44.1329 83.107C44.3204 83.2945 44.5748 83.3999 44.84 83.3999H70.94C71.2052 83.3999 71.4596 83.2945 71.6471 83.107C71.8346 82.9195 71.94 82.6651 71.94 82.3999C71.94 82.1347 71.8346 81.8803 71.6471 81.6928C71.4596 81.5052 71.2052 81.3999 70.94 81.3999H69.46V81.2399C69.238 80.0548 68.7054 78.9498 67.9165 78.038C67.1277 77.1261 66.1109 76.44 64.97 76.0499H64.83V72.7399H80.42C81.3094 72.7399 82.1625 72.3873 82.7924 71.7593C83.4222 71.1313 83.7774 70.2793 83.78 69.3899V61.1999V61.1399C85.2872 59.5161 86.129 57.3851 86.1382 55.1696C86.1475 52.9542 85.3236 50.8162 83.83 49.1799ZM67.17 40.7199H80.42C80.6025 40.7199 80.7833 40.7558 80.9519 40.8257C81.1206 40.8955 81.2738 40.9979 81.4029 41.127C81.532 41.2561 81.6343 41.4093 81.7042 41.578C81.774 41.7466 81.81 41.9273 81.81 42.1099V47.3099L81.5 47.0999C79.102 45.5199 76.2916 44.6817 73.42 44.6899C71.3618 44.6742 69.3215 45.0721 67.42 45.8599L67.13 45.9799L67.17 40.7199ZM37.52 28.8599H65.21V33.9999H37.52V28.8599ZM37.52 35.9799H65.21V46.9999L65.12 47.0599C63.7803 47.9447 62.6505 49.112 61.81 50.4799L61.75 50.5799H37.52V35.9799ZM67.38 81.1899L67.46 81.4499H48.32L48.39 81.1899C48.8 79.8099 50.1 77.4899 54.33 77.4899H56.7C56.9652 77.4899 57.2196 77.3845 57.4071 77.197C57.5946 77.0095 57.7 76.7551 57.7 76.4899C57.7 76.2247 57.5946 75.9703 57.4071 75.7828C57.2196 75.5952 56.9652 75.4899 56.7 75.4899H52.94V72.7399H62.84V75.5199H62.63C62.3648 75.5199 62.1104 75.6252 61.9229 75.8128C61.7354 76.0003 61.63 76.2547 61.63 76.5199C61.6279 76.764 61.7153 77.0005 61.8755 77.1847C62.0358 77.3689 62.2579 77.4881 62.5 77.5199C65.93 77.8899 67 79.9999 67.38 81.1899ZM81.81 69.3899C81.81 69.5724 81.774 69.7532 81.7042 69.9218C81.6343 70.0905 81.532 70.2437 81.4029 70.3728C81.2738 70.5018 81.1206 70.6042 80.9519 70.6741C80.7833 70.7439 80.6025 70.7799 80.42 70.7799H35.35C34.9883 70.7695 34.645 70.6184 34.3929 70.3589C34.1408 70.0993 33.9999 69.7517 34 69.3899V42.1099C34 41.7412 34.1464 41.3877 34.4071 41.127C34.6678 40.8663 35.0213 40.7199 35.39 40.7199H35.6V51.5999C35.6 51.8651 35.7054 52.1195 35.8929 52.307C36.0804 52.4945 36.3348 52.5999 36.6 52.5999H60.86L60.79 52.8599C60.5788 53.6152 60.4711 54.3956 60.47 55.1799C60.5 57.5008 61.4033 59.7252 63 61.4099L63.14 61.5499L60.76 63.9999C60.5777 64.1837 60.4737 64.431 60.47 64.6899C60.47 64.9551 60.5754 65.2095 60.7629 65.397C60.9504 65.5845 61.2048 65.6899 61.47 65.6899H73.31C76.2187 65.7175 79.0698 64.8785 81.5 63.2799L81.81 63.0699V69.3899ZM73.31 63.6599H72.05H71.85H63.85L65.27 62.2399C65.3637 62.1469 65.4381 62.0363 65.4889 61.9145C65.5397 61.7926 65.5658 61.6619 65.5658 61.5299C65.5658 61.3979 65.5397 61.2672 65.4889 61.1453C65.4381 61.0234 65.3637 60.9128 65.27 60.8199C64.4201 60.1367 63.7274 59.2784 63.2391 58.3034C62.7507 57.3284 62.4782 56.2597 62.44 55.1699C62.44 50.4699 67.32 46.6499 73.32 46.6499C79.32 46.6499 84.2 50.4699 84.2 55.1599C84.2 59.8499 79.31 63.6599 73.31 63.6599Z" fill="url(#paint0_linear_1020_3900)"/>
<path d="M51.69 0.13L50.45 0.26C49.9767 0.313333 49.4933 0.373333 49 0.44L48.57 0.5C39.1586 1.87949 30.2452 5.60371 22.65 11.33L22.48 11.46L21.14 12.46L20.71 12.82L19.65 13.7L19.03 14.25L18.19 15.01L17.45 15.71L16.74 16.4L16.37 16.76C10.8012 22.3898 6.46882 29.12 3.65 36.52C3.05 38.1 2.53 39.68 2.07 41.27C1.88 41.94 1.7 42.62 1.53 43.27V43.41C1.31 44.32 1.12 45.23 0.94 46.14C0.94 46.32 0.87 46.49 0.84 46.66C0.68 47.56 0.54 48.46 0.41 49.38C0.41 49.59 0.41 49.8 0.34 50.02C0.16 51.22 0.07 52.42 0 53.63H5C5.07 52.5 5.16 51.37 5.31 50.24C5.43 49.33 5.58 48.41 5.74 47.5C5.74 47.38 5.74 47.26 5.81 47.14C5.98 46.27 6.17 45.39 6.38 44.52C6.38 44.46 6.38 44.41 6.38 44.36C7.07927 41.5613 8.00911 38.8252 9.16 36.18C9.24 35.99 9.33 35.81 9.42 35.62C9.82 34.71 10.25 33.82 10.71 32.94L11.11 32.2C11.51 31.47 11.92 30.75 12.35 30.04C12.56 29.69 12.77 29.35 12.99 29.04C13.37 28.45 13.76 27.86 14.16 27.29C14.44 26.88 14.72 26.49 15.02 26.09C15.32 25.69 15.8 25.09 16.2 24.55C17.9295 22.3856 19.8252 20.3594 21.87 18.49L22.01 18.36L23.14 17.36L23.71 16.88L24.42 16.3L25.57 15.42L25.73 15.29C33.8412 9.23772 43.5314 5.66378 53.63 5V0L52.37 0.07L51.69 0.13Z" fill="#D4DDE0"/>
<path d="M61.9184 5.14L62.8684 5.23L63.7984 5.35L64.7984 5.49L65.7184 5.64L66.7184 5.81L67.6484 6L68.5784 6.21L69.5784 6.43L70.4884 6.67L71.4284 6.93L72.3284 7.2L73.2284 7.49L74.2284 7.81L75.0084 8.1C86.5513 12.3784 96.2102 20.5993 102.278 31.31C102.316 31.3678 102.349 31.4279 102.378 31.49C102.618 31.91 102.848 32.33 103.068 32.76L103.488 33.57L103.818 34.25C104.038 34.7033 104.248 35.1533 104.448 35.6L104.538 35.79C107.036 41.4322 108.516 47.472 108.908 53.63H113.908C113.562 47.7713 112.318 42.0006 110.218 36.52C110.158 36.35 110.088 36.19 110.028 36.03L109.658 35.13C109.528 34.81 109.398 34.5 109.258 34.13L108.798 33.13C108.688 32.88 108.568 32.63 108.448 32.38C108.248 31.96 108.048 31.55 107.838 31.14C107.758 30.98 107.668 30.81 107.588 30.64C107.328 30.14 107.058 29.64 106.788 29.15L106.678 28.96C102.004 20.6521 95.3066 13.6593 87.2084 8.63L86.8084 8.38L85.5984 7.65L84.5084 7L83.9084 6.67C79.9833 4.56484 75.8249 2.927 71.5184 1.79L71.0684 1.68C70.5784 1.55 70.0684 1.43 69.5884 1.32C69.2684 1.24 68.9384 1.18 68.5884 1.11L67.5884 0.91C67.0884 0.81 66.5884 0.73 66.0884 0.65L65.6884 0.57C63.8484 0.28 61.9984 0.11 60.1484 0V5H60.9284C61.2618 5.05333 61.5918 5.1 61.9184 5.14Z" fill="#F5BF3E"/>
<path d="M52 108.65L50.85 108.54L50 108.42C49.66 108.42 49.32 108.34 49 108.28L48.09 108.13L47.09 107.96L46.16 107.77L45.23 107.57L44.29 107.34L43.38 107.11L42.38 106.83L41.55 106.58L40.46 106.23L39.76 106L38.51 105.54L38.01 105.35C37.52 105.16 37.01 104.96 36.55 104.75L36.32 104.65C33.4917 103.43 30.7777 101.961 28.21 100.26C26.81 99.3399 25.46 98.3499 24.21 97.2599C20.6497 94.3718 17.4828 91.0301 14.79 87.3199C14.64 87.0999 14.48 86.8899 14.33 86.6799C14.01 86.2099 13.7 85.7399 13.39 85.2699L13.21 85.0099C12.31 83.6199 11.48 82.1699 10.71 80.6899C7.4222 74.3057 5.47883 67.315 5 60.1499H0C0 60.6999 0.07 61.2599 0.12 61.8099C0.12 62.0699 0.12 62.3299 0.19 62.5899C0.28 63.5099 0.4 64.4299 0.53 65.3299V65.5399C1.74179 73.5034 4.63971 81.1164 9.03 87.8699C9.44 88.4999 9.86 89.1299 10.3 89.7399L10.69 90.2999C14.6656 95.801 19.5973 100.543 25.25 104.3L25.57 104.5L26.69 105.22L27.62 105.78L28.35 106.21C28.84 106.5 29.35 106.77 29.84 107.05L30.06 107.17C37.3384 111.052 45.3742 113.304 53.61 113.77V108.77H52.73L52 108.65Z" fill="#D4DDE0"/>
<path d="M108.768 60.1501C108.652 62.02 108.439 63.8826 108.128 65.7301V65.8901C107.978 66.7701 107.788 67.6501 107.588 68.5201C107.588 68.6401 107.588 68.7601 107.508 68.8801C107.298 69.7801 107.068 70.6701 106.808 71.5501C103.798 81.6846 97.7788 90.6647 89.5484 97.3001C88.2484 98.3001 86.8984 99.3001 85.5484 100.3L85.2984 100.46C84.8184 100.77 84.2984 101.08 83.8584 101.37L83.1784 101.77C79.2039 104.057 74.948 105.815 70.5184 107C68.9184 107.44 67.2884 107.79 65.6384 108.08C63.8208 108.389 61.9883 108.602 60.1484 108.72V113.72L61.1484 113.66H61.3984C61.9684 113.66 62.5284 113.57 63.0984 113.5L63.9384 113.4L64.9984 113.3C65.4384 113.24 65.8784 113.16 66.3084 113.09L66.6784 113.03C73.381 111.858 79.8174 109.487 85.6784 106.03L86.2584 105.69C86.9084 105.3 87.5484 104.9 88.1784 104.48C94.9324 100.085 100.667 94.2954 104.998 87.5001L105.108 87.3201C105.598 86.5401 106.108 85.7601 106.528 84.9501L106.908 84.2501C107.268 83.5835 107.602 82.9168 107.908 82.2501C108.108 81.8501 108.288 81.4501 108.478 81.0401C108.668 80.6301 108.878 80.2401 109.058 79.8301C109.138 79.6301 109.218 79.4301 109.308 79.2301L109.488 78.8001C110.228 77.0135 110.875 75.2101 111.428 73.3901L111.608 72.7701C111.868 71.8901 112.108 71.0001 112.318 70.1101C112.318 69.9401 112.398 69.7701 112.428 69.6001C112.638 68.6901 112.828 67.7801 112.988 66.8701V66.7101C113.108 66.0301 113.228 65.3401 113.318 64.6501C113.528 63.1701 113.668 61.6501 113.758 60.1401L108.768 60.1501Z" fill="#D4DDE0"/>
</g>
<defs>
<linearGradient id="paint0_linear_1020_3900" x1="32" y1="55.1599" x2="86.17" y2="55.1599" gradientUnits="userSpaceOnUse">
<stop stop-color="#18B9E9"/>
<stop offset="0.65" stop-color="#5572FD"/>
<stop offset="1" stop-color="#3759F2"/>
</linearGradient>
<clipPath id="clip0_1020_3900">
<rect width="113.8" height="113.79" fill="white"/>
</clipPath>
</defs>
</svg>
