<svg width="114" height="114" viewBox="0 0 114 114" fill="none" xmlns="http://www.w3.org/2000/svg">
<g clip-path="url(#clip0_1020_3906)">
<path d="M78.8589 64.1799C79.0089 64.6699 79.1289 65.0899 79.2189 65.4199C79.2794 65.6362 79.4109 65.8259 79.5923 65.9583C79.7738 66.0907 79.9945 66.1582 80.2189 66.1499H88.3989C88.6641 66.1499 88.9185 66.0446 89.106 65.857C89.2936 65.6695 89.3989 65.4151 89.3989 65.1499V40.5999C89.3989 40.3347 89.2936 40.0803 89.106 39.8928C88.9185 39.7053 88.6641 39.5999 88.3989 39.5999C78.0789 39.5999 72.2789 42.1399 71.6589 42.4299C71.5301 42.4891 71.4153 42.575 71.3222 42.6818C71.2291 42.7887 71.1598 42.9142 71.1189 43.0499C71.0531 43.2895 71.0744 43.5446 71.1789 43.7699L71.5789 44.5899L70.7289 44.2699C68.7289 43.5299 65.8389 42.3699 62.8889 41.0499C58.3689 39.0499 55.3289 39.3599 51.6589 42.2499L51.5589 42.3299H40.0689L40.1289 41.9199C40.1289 41.4899 40.2289 41.0799 40.2589 40.6899C40.2726 40.5411 40.2528 40.391 40.2009 40.2509C40.149 40.1107 40.0663 39.9839 39.9589 39.8799C38.1689 38.1899 31.4089 37.2199 25.6889 36.8799C25.5533 36.8673 25.4165 36.885 25.2885 36.9317C25.1606 36.9784 25.0446 37.0529 24.9489 37.1499C24.8496 37.242 24.77 37.3533 24.715 37.4771C24.66 37.6008 24.6307 37.7345 24.6289 37.8699V62.4299C24.6289 62.6951 24.7343 62.9495 24.9218 63.137C25.1093 63.3246 25.3637 63.4299 25.6289 63.4299H33.8089C34.0198 63.4298 34.2252 63.3629 34.3958 63.239C34.5665 63.1151 34.6935 62.9404 34.7589 62.7399L35.0789 61.7399L35.2689 61.1599L36.6989 62.6499C37.9089 63.9199 39.1589 65.2199 39.9889 65.9199C45.0589 70.1599 51.1489 74.7399 52.3589 75.5399C53.7565 76.4231 55.3501 76.9485 56.9989 77.0699C58.0203 77.1392 59.0333 76.8452 59.8589 76.2399L59.9989 76.0999L60.1989 76.1799C61.1137 76.5273 62.1241 76.5273 63.0389 76.1799C64.1927 75.7196 65.1338 74.8462 65.6789 73.7299L65.8089 73.4799L66.0789 73.5399C67.1824 73.735 68.3194 73.5443 69.2989 72.9999C70.2416 72.5541 70.9886 71.7786 71.3989 70.8199L71.4989 70.5799H71.7589C72.8084 70.6266 73.8357 70.2686 74.6289 69.5799C75.1773 69.1323 75.5942 68.5445 75.8354 67.8789C76.0766 67.2134 76.1331 66.495 75.9989 65.7999V65.5699L78.7689 63.7099L78.8589 64.1799ZM73.8589 43.7099C78.1104 42.3627 82.5393 41.6582 86.9989 41.6199H87.3689V64.1599H80.9389L80.8589 63.8999C79.5489 59.6299 75.7089 48.6399 73.6289 44.2099L73.4589 43.8399L73.8589 43.7099ZM33.1589 61.1699L33.0789 61.4299H26.6289V38.9399L26.9989 38.9999C31.1089 39.3299 36.0889 40.0599 37.9989 40.9999L38.2389 41.1199V41.3799C37.4589 47.3399 34.1589 57.9999 33.1589 61.1699ZM73.3289 68.0699C73.0707 68.3241 72.7439 68.4974 72.3886 68.5685C72.0333 68.6396 71.665 68.6053 71.3289 68.4699C70.1989 67.5799 65.7089 62.9599 63.2189 60.3699C63.1283 60.2748 63.0199 60.1985 62.8997 60.1453C62.7796 60.0921 62.6502 60.0631 62.5189 60.0599C62.2557 60.0619 62.0026 60.1617 61.8089 60.3399C61.6227 60.5273 61.5181 60.7807 61.5181 61.0449C61.5181 61.3091 61.6227 61.5625 61.8089 61.7499C62.7589 62.7499 67.5989 67.7499 69.5689 69.5799L69.7289 69.7299L69.6689 69.9399C69.5705 70.2307 69.4131 70.498 69.2066 70.7251C69.0002 70.9523 68.749 71.1343 68.4689 71.2599C68.0875 71.4912 67.65 71.6134 67.2039 71.6134C66.7579 71.6134 66.3203 71.4912 65.9389 71.2599C64.2289 69.8799 60.0989 65.4999 59.1689 64.4899C58.9854 64.3142 58.7418 64.215 58.4878 64.2124C58.2337 64.2098 57.9882 64.304 57.8011 64.4758C57.614 64.6477 57.4993 64.8843 57.4803 65.1377C57.4613 65.391 57.5395 65.6421 57.6989 65.8399C58.6989 66.9199 62.0089 70.4499 63.9889 72.2099L64.1789 72.3799L64.0789 72.6199C63.9291 72.9958 63.7049 73.3376 63.4196 73.6246C63.1343 73.9116 62.7939 74.1379 62.4189 74.2899C62.0939 74.4509 61.7277 74.5093 61.3688 74.4575C61.0099 74.4058 60.6751 74.2462 60.4089 73.9999C58.4089 72.3099 54.4089 68.0599 53.6389 67.2299C53.5491 67.133 53.4411 67.0548 53.3209 66.9999C53.2008 66.9449 53.0709 66.9144 52.9389 66.9099C52.6759 66.903 52.4208 67 52.2289 67.1799C52.0427 67.3673 51.9381 67.6207 51.9381 67.8849C51.9381 68.1491 52.0427 68.4025 52.2289 68.5899C53.0389 69.4699 55.8589 72.4599 57.9489 74.4299L58.5089 74.9499L57.6989 74.9999C57.4657 75.0125 57.2321 75.0125 56.9989 74.9999C55.7406 74.8787 54.5282 74.4643 53.4589 73.7899C52.4589 73.1499 46.4589 68.6399 41.2789 64.3199C40.5289 63.6899 39.2789 62.3199 38.1589 61.2099C37.3489 60.3699 36.5889 59.5799 36.0889 59.1099L35.9189 58.9999L35.9889 58.7799C37.1789 54.8599 38.7789 49.2199 39.6689 44.5999L39.7289 44.2999H49.2789L48.6589 44.9199C46.8589 46.7299 44.4189 50.3599 45.0289 52.9199C45.1535 53.4399 45.4149 53.917 45.7858 54.3021C46.1568 54.6871 46.624 54.966 47.1389 55.1099C50.1389 56.1099 52.7189 55.1799 54.7389 52.4899L54.8289 52.3799H54.9789C55.6752 52.2848 56.3509 52.0753 56.9789 51.7599L57.9789 51.3499L58.1989 51.2599L58.3689 51.4199C59.9489 52.9099 62.1289 54.6699 64.2289 56.3599C68.2889 59.6499 72.8489 63.3599 73.9089 65.5399C74.1289 65.9617 74.1914 66.4481 74.0851 66.9118C73.9788 67.3755 73.7107 67.7861 73.3289 68.0699ZM75.0589 63.7499L74.8489 63.4799C72.9989 60.9999 69.1389 57.8799 65.4089 54.8599C62.9189 52.8599 60.5789 50.9599 59.0689 49.4499C58.9385 49.3248 58.7767 49.2374 58.6007 49.1969C58.4246 49.1564 58.2408 49.1643 58.0689 49.2199C57.1889 49.5399 56.6389 49.7799 56.1989 49.9799C55.578 50.301 54.8967 50.4884 54.1989 50.5299C54.0532 50.5438 53.9123 50.5895 53.7861 50.6638C53.66 50.7381 53.5517 50.8392 53.4689 50.9599C51.9089 53.2899 50.0589 54.0499 47.7889 53.2999C47.5981 53.2614 47.4226 53.1681 47.284 53.0313C47.1455 52.8945 47.0498 52.7203 47.0089 52.5299C46.6589 51.0699 48.3689 48.0999 50.1189 46.3399C54.6089 41.8499 57.1189 40.6499 62.1189 42.8799C66.6989 44.8799 71.3489 46.6299 72.6589 47.0999H72.8089L72.8689 47.2499C74.4989 51.2499 76.6989 57.3699 78.0489 61.4199L78.1389 61.6799L75.0589 63.7499Z" fill="url(#paint0_linear_1020_3906)"/>
<path d="M51.69 0.13L50.45 0.26C49.9767 0.313333 49.4933 0.373333 49 0.44L48.57 0.5C39.1586 1.87949 30.2452 5.60371 22.65 11.33L22.48 11.46L21.14 12.46L20.71 12.82L19.65 13.7L19.03 14.25L18.19 15.01L17.45 15.71L16.74 16.4L16.37 16.76C10.8012 22.3898 6.46882 29.12 3.65 36.52C3.05 38.1 2.53 39.68 2.07 41.27C1.88 41.94 1.7 42.62 1.53 43.27V43.41C1.31 44.32 1.12 45.23 0.94 46.14C0.94 46.32 0.87 46.49 0.84 46.66C0.68 47.56 0.54 48.46 0.41 49.38C0.41 49.59 0.41 49.8 0.34 50.02C0.16 51.22 0.07 52.42 0 53.63H5C5.07 52.5 5.16 51.37 5.31 50.24C5.43 49.33 5.58 48.41 5.74 47.5C5.74 47.38 5.74 47.26 5.81 47.14C5.98 46.27 6.17 45.39 6.38 44.52C6.38 44.46 6.38 44.41 6.38 44.36C7.07927 41.5613 8.00911 38.8252 9.16 36.18C9.24 35.99 9.33 35.81 9.42 35.62C9.82 34.71 10.25 33.82 10.71 32.94L11.11 32.2C11.51 31.47 11.92 30.75 12.35 30.04C12.56 29.69 12.77 29.35 12.99 29.04C13.37 28.45 13.76 27.86 14.16 27.29C14.44 26.88 14.72 26.49 15.02 26.09C15.32 25.69 15.8 25.09 16.2 24.55C17.9295 22.3856 19.8252 20.3594 21.87 18.49L22.01 18.36L23.14 17.36L23.71 16.88L24.42 16.3L25.57 15.42L25.73 15.29C33.8412 9.23772 43.5314 5.66378 53.63 5V0L52.37 0.07L51.69 0.13Z" fill="#D4DDE0"/>
<path d="M61.9184 5.14L62.8684 5.23L63.7984 5.35L64.7984 5.49L65.7184 5.64L66.7184 5.81L67.6484 6L68.5784 6.21L69.5784 6.43L70.4884 6.67L71.4284 6.93L72.3284 7.2L73.2284 7.49L74.2284 7.81L75.0084 8.1C86.5513 12.3784 96.2102 20.5993 102.278 31.31C102.316 31.3678 102.349 31.4279 102.378 31.49C102.618 31.91 102.848 32.33 103.068 32.76L103.488 33.57L103.818 34.25C104.038 34.7033 104.248 35.1533 104.448 35.6L104.538 35.79C107.036 41.4322 108.516 47.472 108.908 53.63H113.908C113.562 47.7713 112.318 42.0006 110.218 36.52C110.158 36.35 110.088 36.19 110.028 36.03L109.658 35.13C109.528 34.81 109.398 34.5 109.258 34.13L108.798 33.13C108.688 32.88 108.568 32.63 108.448 32.38C108.248 31.96 108.048 31.55 107.838 31.14C107.758 30.98 107.668 30.81 107.588 30.64C107.328 30.14 107.058 29.64 106.788 29.15L106.678 28.96C102.004 20.6521 95.3066 13.6593 87.2084 8.63L86.8084 8.38L85.5984 7.65L84.5084 7L83.9084 6.67C79.9833 4.56484 75.8249 2.927 71.5184 1.79L71.0684 1.68C70.5784 1.55 70.0684 1.43 69.5884 1.32C69.2684 1.24 68.9384 1.18 68.5884 1.11L67.5884 0.91C67.0884 0.81 66.5884 0.73 66.0884 0.65L65.6884 0.57C63.8484 0.28 61.9984 0.11 60.1484 0V5H60.9284C61.2618 5.05333 61.5918 5.1 61.9184 5.14Z" fill="#F5BF3E"/>
<path d="M52 108.65L50.85 108.54L50 108.42C49.66 108.42 49.32 108.34 49 108.28L48.09 108.13L47.09 107.96L46.16 107.77L45.23 107.57L44.29 107.34L43.38 107.11L42.38 106.83L41.55 106.58L40.46 106.23L39.76 106L38.51 105.54L38.01 105.35C37.52 105.16 37.01 104.96 36.55 104.75L36.32 104.65C33.4917 103.43 30.7777 101.961 28.21 100.26C26.81 99.3399 25.46 98.3499 24.21 97.2599C20.6497 94.3718 17.4828 91.0301 14.79 87.3199C14.64 87.0999 14.48 86.8899 14.33 86.6799C14.01 86.2099 13.7 85.7399 13.39 85.2699L13.21 85.0099C12.31 83.6199 11.48 82.1699 10.71 80.6899C7.4222 74.3057 5.47883 67.315 5 60.1499H0C0 60.6999 0.07 61.2599 0.12 61.8099C0.12 62.0699 0.12 62.3299 0.19 62.5899C0.28 63.5099 0.4 64.4299 0.53 65.3299V65.5399C1.74179 73.5034 4.63971 81.1164 9.03 87.8699C9.44 88.4999 9.86 89.1299 10.3 89.7399L10.69 90.2999C14.6656 95.801 19.5973 100.543 25.25 104.3L25.57 104.5L26.69 105.22L27.62 105.78L28.35 106.21C28.84 106.5 29.35 106.77 29.84 107.05L30.06 107.17C37.3384 111.052 45.3742 113.304 53.61 113.77V108.77H52.73L52 108.65Z" fill="#D4DDE0"/>
<path d="M108.768 60.1501C108.652 62.02 108.439 63.8826 108.128 65.7301V65.8901C107.978 66.7701 107.788 67.6501 107.588 68.5201C107.588 68.6401 107.588 68.7601 107.508 68.8801C107.298 69.7801 107.068 70.6701 106.808 71.5501C103.798 81.6846 97.7788 90.6647 89.5484 97.3001C88.2484 98.3001 86.8984 99.3001 85.5484 100.3L85.2984 100.46C84.8184 100.77 84.2984 101.08 83.8584 101.37L83.1784 101.77C79.2039 104.057 74.948 105.815 70.5184 107C68.9184 107.44 67.2884 107.79 65.6384 108.08C63.8208 108.389 61.9883 108.602 60.1484 108.72V113.72L61.1484 113.66H61.3984C61.9684 113.66 62.5284 113.57 63.0984 113.5L63.9384 113.4L64.9984 113.3C65.4384 113.24 65.8784 113.16 66.3084 113.09L66.6784 113.03C73.381 111.858 79.8174 109.487 85.6784 106.03L86.2584 105.69C86.9084 105.3 87.5484 104.9 88.1784 104.48C94.9324 100.085 100.667 94.2954 104.998 87.5001L105.108 87.3201C105.598 86.5401 106.108 85.7601 106.528 84.9501L106.908 84.2501C107.268 83.5835 107.602 82.9168 107.908 82.2501C108.108 81.8501 108.288 81.4501 108.478 81.0401C108.668 80.6301 108.878 80.2401 109.058 79.8301C109.138 79.6301 109.218 79.4301 109.308 79.2301L109.488 78.8001C110.228 77.0135 110.875 75.2101 111.428 73.3901L111.608 72.7701C111.868 71.8901 112.108 71.0001 112.318 70.1101C112.318 69.9401 112.398 69.7701 112.428 69.6001C112.638 68.6901 112.828 67.7801 112.988 66.8701V66.7101C113.108 66.0301 113.228 65.3401 113.318 64.6501C113.528 63.1701 113.668 61.6501 113.758 60.1401L108.768 60.1501Z" fill="#F5BF3E"/>
</g>
<defs>
<linearGradient id="paint0_linear_1020_3906" x1="24.6289" y1="56.9699" x2="89.3689" y2="56.9699" gradientUnits="userSpaceOnUse">
<stop stop-color="#18B9E9"/>
<stop offset="0.65" stop-color="#5572FD"/>
<stop offset="1" stop-color="#3759F2"/>
</linearGradient>
<clipPath id="clip0_1020_3906">
<rect width="113.8" height="113.79" fill="white"/>
</clipPath>
</defs>
</svg>
