<svg width="114" height="114" viewBox="0 0 114 114" fill="none" xmlns="http://www.w3.org/2000/svg">
<g clip-path="url(#clip0_1020_3918)">
<path d="M83.3285 41.0802C83.3269 40.9624 83.2996 40.8463 83.2485 40.7402C83.2021 40.641 83.1339 40.5536 83.0491 40.4843C82.9643 40.4151 82.865 40.3658 82.7585 40.3402L82.5785 40.2902L57.2885 28.0002C57.1852 27.9459 57.0702 27.9175 56.9535 27.9175C56.8368 27.9175 56.7218 27.9459 56.6185 28.0002L31.0785 40.4002C30.9505 40.4593 30.8419 40.5537 30.7658 40.6724C30.6896 40.7911 30.6489 40.9291 30.6485 41.0702V72.1602C30.6463 72.3043 30.6857 72.4461 30.7619 72.5685C30.8382 72.6909 30.9481 72.7887 31.0785 72.8502L56.4685 85.1602H57.4685L82.9185 72.8102C83.0452 72.7466 83.1522 72.6497 83.228 72.5299C83.3037 72.4101 83.3454 72.2719 83.3485 72.1302V41.5602L83.3285 41.0802ZM56.9985 29.8202L80.1985 41.0902L70.9385 45.5902L47.6985 34.3102L56.9985 29.8202ZM55.9985 82.9202L32.4185 71.5202V42.7302L55.9385 54.1302L55.9985 82.9202ZM56.9985 52.3702L33.6985 41.0902L45.3785 35.4302L68.6285 46.7102L56.9985 52.3702ZM81.6085 71.4702L57.9985 82.9202V54.1302L69.5485 48.5302V56.5302C69.5485 56.7954 69.6539 57.0497 69.8414 57.2373C70.029 57.4248 70.2833 57.5302 70.5485 57.5302C70.8137 57.5302 71.0681 57.4248 71.2556 57.2373C71.4432 57.0497 71.5485 56.7954 71.5485 56.5302V47.5302L81.5485 42.6702L81.6085 71.4702Z" fill="url(#paint0_linear_1020_3918)"/>
<path d="M51.69 0.13L50.45 0.26C49.9767 0.313333 49.4933 0.373333 49 0.44L48.57 0.5C39.1586 1.87949 30.2452 5.60371 22.65 11.33L22.48 11.46L21.14 12.46L20.71 12.82L19.65 13.7L19.03 14.25L18.19 15.01L17.45 15.71L16.74 16.4L16.37 16.76C10.8012 22.3898 6.46882 29.12 3.65 36.52C3.05 38.1 2.53 39.68 2.07 41.27C1.88 41.94 1.7 42.62 1.53 43.27V43.41C1.31 44.32 1.12 45.23 0.94 46.14C0.94 46.32 0.87 46.49 0.84 46.66C0.68 47.56 0.54 48.46 0.41 49.38C0.41 49.59 0.41 49.8 0.34 50.02C0.16 51.22 0.07 52.42 0 53.63H5C5.07 52.5 5.16 51.37 5.31 50.24C5.43 49.33 5.58 48.41 5.74 47.5C5.74 47.38 5.74 47.26 5.81 47.14C5.98 46.27 6.17 45.39 6.38 44.52C6.38 44.46 6.38 44.41 6.38 44.36C7.07927 41.5613 8.00911 38.8252 9.16 36.18C9.24 35.99 9.33 35.81 9.42 35.62C9.82 34.71 10.25 33.82 10.71 32.94L11.11 32.2C11.51 31.47 11.92 30.75 12.35 30.04C12.56 29.69 12.77 29.35 12.99 29.04C13.37 28.45 13.76 27.86 14.16 27.29C14.44 26.88 14.72 26.49 15.02 26.09C15.32 25.69 15.8 25.09 16.2 24.55C17.9295 22.3856 19.8252 20.3594 21.87 18.49L22.01 18.36L23.14 17.36L23.71 16.88L24.42 16.3L25.57 15.42L25.73 15.29C33.8412 9.23772 43.5314 5.66378 53.63 5V0L52.37 0.07L51.69 0.13Z" fill="#F5BF3E"/>
<path d="M61.9184 5.14L62.8684 5.23L63.7984 5.35L64.7984 5.49L65.7184 5.64L66.7184 5.81L67.6484 6L68.5784 6.21L69.5784 6.43L70.4884 6.67L71.4284 6.93L72.3284 7.2L73.2284 7.49L74.2284 7.81L75.0084 8.1C86.5513 12.3784 96.2102 20.5993 102.278 31.31C102.316 31.3678 102.349 31.4279 102.378 31.49C102.618 31.91 102.848 32.33 103.068 32.76L103.488 33.57L103.818 34.25C104.038 34.7033 104.248 35.1533 104.448 35.6L104.538 35.79C107.036 41.4322 108.516 47.472 108.908 53.63H113.908C113.562 47.7713 112.318 42.0006 110.218 36.52C110.158 36.35 110.088 36.19 110.028 36.03L109.658 35.13C109.528 34.81 109.398 34.5 109.258 34.13L108.798 33.13C108.688 32.88 108.568 32.63 108.448 32.38C108.248 31.96 108.048 31.55 107.838 31.14C107.758 30.98 107.668 30.81 107.588 30.64C107.328 30.14 107.058 29.64 106.788 29.15L106.678 28.96C102.004 20.6521 95.3066 13.6593 87.2084 8.63L86.8084 8.38L85.5984 7.65L84.5084 7L83.9084 6.67C79.9833 4.56484 75.8249 2.927 71.5184 1.79L71.0684 1.68C70.5784 1.55 70.0684 1.43 69.5884 1.32C69.2684 1.24 68.9384 1.18 68.5884 1.11L67.5884 0.91C67.0884 0.81 66.5884 0.73 66.0884 0.65L65.6884 0.57C63.8484 0.28 61.9984 0.11 60.1484 0V5H60.9284C61.2618 5.05333 61.5918 5.1 61.9184 5.14Z" fill="#F5BF3E"/>
<path d="M52 108.65L50.85 108.54L50 108.42C49.66 108.42 49.32 108.34 49 108.28L48.09 108.13L47.09 107.96L46.16 107.77L45.23 107.57L44.29 107.34L43.38 107.11L42.38 106.83L41.55 106.58L40.46 106.23L39.76 106L38.51 105.54L38.01 105.35C37.52 105.16 37.01 104.96 36.55 104.75L36.32 104.65C33.4917 103.43 30.7777 101.961 28.21 100.26C26.81 99.3399 25.46 98.3499 24.21 97.2599C20.6497 94.3718 17.4828 91.0301 14.79 87.3199C14.64 87.0999 14.48 86.8899 14.33 86.6799C14.01 86.2099 13.7 85.7399 13.39 85.2699L13.21 85.0099C12.31 83.6199 11.48 82.1699 10.71 80.6899C7.4222 74.3057 5.47883 67.315 5 60.1499H0C0 60.6999 0.07 61.2599 0.12 61.8099C0.12 62.0699 0.12 62.3299 0.19 62.5899C0.28 63.5099 0.4 64.4299 0.53 65.3299V65.5399C1.74179 73.5034 4.63971 81.1164 9.03 87.8699C9.44 88.4999 9.86 89.1299 10.3 89.7399L10.69 90.2999C14.6656 95.801 19.5973 100.543 25.25 104.3L25.57 104.5L26.69 105.22L27.62 105.78L28.35 106.21C28.84 106.5 29.35 106.77 29.84 107.05L30.06 107.17C37.3384 111.052 45.3742 113.304 53.61 113.77V108.77H52.73L52 108.65Z" fill="#F5BF3E"/>
<path d="M108.768 60.1501C108.652 62.02 108.439 63.8826 108.128 65.7301V65.8901C107.978 66.7701 107.788 67.6501 107.588 68.5201C107.588 68.6401 107.588 68.7601 107.508 68.8801C107.298 69.7801 107.068 70.6701 106.808 71.5501C103.798 81.6846 97.7788 90.6647 89.5484 97.3001C88.2484 98.3001 86.8984 99.3001 85.5484 100.3L85.2984 100.46C84.8184 100.77 84.2984 101.08 83.8584 101.37L83.1784 101.77C79.2039 104.057 74.948 105.815 70.5184 107C68.9184 107.44 67.2884 107.79 65.6384 108.08C63.8208 108.389 61.9883 108.602 60.1484 108.72V113.72L61.1484 113.66H61.3984C61.9684 113.66 62.5284 113.57 63.0984 113.5L63.9384 113.4L64.9984 113.3C65.4384 113.24 65.8784 113.16 66.3084 113.09L66.6784 113.03C73.381 111.858 79.8174 109.487 85.6784 106.03L86.2584 105.69C86.9084 105.3 87.5484 104.9 88.1784 104.48C94.9324 100.085 100.667 94.2954 104.998 87.5001L105.108 87.3201C105.598 86.5401 106.108 85.7601 106.528 84.9501L106.908 84.2501C107.268 83.5835 107.602 82.9168 107.908 82.2501C108.108 81.8501 108.288 81.4501 108.478 81.0401C108.668 80.6301 108.878 80.2401 109.058 79.8301C109.138 79.6301 109.218 79.4301 109.308 79.2301L109.488 78.8001C110.228 77.0135 110.875 75.2101 111.428 73.3901L111.608 72.7701C111.868 71.8901 112.108 71.0001 112.318 70.1101C112.318 69.9401 112.398 69.7701 112.428 69.6001C112.638 68.6901 112.828 67.7801 112.988 66.8701V66.7101C113.108 66.0301 113.228 65.3401 113.318 64.6501C113.528 63.1701 113.668 61.6501 113.758 60.1401L108.768 60.1501Z" fill="#F5BF3E"/>
</g>
<defs>
<linearGradient id="paint0_linear_1020_3918" x1="30.6485" y1="56.5502" x2="83.3485" y2="56.5502" gradientUnits="userSpaceOnUse">
<stop stop-color="#18B9E9"/>
<stop offset="0.65" stop-color="#5572FD"/>
<stop offset="1" stop-color="#3759F2"/>
</linearGradient>
<clipPath id="clip0_1020_3918">
<rect width="113.8" height="113.79" fill="white"/>
</clipPath>
</defs>
</svg>
