<svg width="40" height="14" viewBox="0 0 40 14" fill="none" xmlns="http://www.w3.org/2000/svg">
<path d="M38.88 6.15009L33.88 0.350092C33.799 0.237622 33.6955 0.143224 33.576 0.0728868C33.4566 0.00254988 33.3238 -0.042189 33.1862 -0.0584901C33.0485 -0.0747912 32.909 -0.0622987 32.7765 -0.0218053C32.6439 0.018688 32.5212 0.0862978 32.4161 0.176733C32.3111 0.267168 32.226 0.378453 32.1663 0.503524C32.1065 0.628596 32.0734 0.764722 32.0691 0.903264C32.0647 1.04181 32.0893 1.17974 32.1411 1.3083C32.1929 1.43687 32.2708 1.55326 32.37 1.65009L35.94 5.80009H1C0.734784 5.80009 0.48043 5.90545 0.292893 6.09298C0.105357 6.28052 0 6.53488 0 6.80009C0 7.06531 0.105357 7.31966 0.292893 7.5072C0.48043 7.69473 0.734784 7.80009 1 7.80009H35.94L32.37 11.9401C32.1964 12.1404 32.1094 12.4014 32.1282 12.6658C32.1469 12.9302 32.2699 13.1763 32.47 13.3501C32.6523 13.5109 32.8869 13.5997 33.13 13.6001C33.2728 13.5987 33.4135 13.5667 33.5429 13.5063C33.6723 13.446 33.7872 13.3586 33.88 13.2501L38.88 7.45009C39.0349 7.26896 39.1201 7.03844 39.1201 6.80009C39.1201 6.56174 39.0349 6.33122 38.88 6.15009Z" fill="url(#paint0_linear_1020_3925)"/>
<defs>
<linearGradient id="paint0_linear_1020_3925" x1="0" y1="6.80009" x2="39.13" y2="6.80009" gradientUnits="userSpaceOnUse">
<stop stop-color="#18B9E9"/>
<stop offset="0.65" stop-color="#5572FD"/>
<stop offset="1" stop-color="#3759F2"/>
</linearGradient>
</defs>
</svg>
