<svg width="16" height="12" viewBox="0 0 16 12" fill="none" xmlns="http://www.w3.org/2000/svg">
<g clip-path="url(#clip0_1020_3528)">
<path d="M14.63 1.23L8.53 6.13C8.40312 6.22975 8.2464 6.28398 8.085 6.28398C7.9236 6.28398 7.76688 6.22975 7.64 6.13L1.54 1.13C1.46273 1.03279 1.41272 0.916772 1.39509 0.793853C1.37745 0.670933 1.39283 0.545535 1.43965 0.430522C1.48647 0.315509 1.56304 0.21502 1.66151 0.139365C1.75998 0.0637089 1.87681 0.0156093 2 0L14.18 0C14.3198 0.00642903 14.4546 0.0540267 14.5674 0.136814C14.6802 0.2196 14.7661 0.333884 14.8142 0.465307C14.8622 0.596731 14.8704 0.739433 14.8376 0.875486C14.8049 1.01154 14.7326 1.13487 14.63 1.23ZM15.54 11.5H0.63C0.550057 11.5054 0.469844 11.4945 0.394252 11.468C0.31866 11.4414 0.249274 11.3997 0.190324 11.3454C0.131375 11.2912 0.0840972 11.2254 0.0513754 11.1523C0.0186536 11.0792 0.00117315 11.0001 0 10.92L0 4.28C0.0112369 4.15797 0.0557291 4.04135 0.128635 3.94285C0.201541 3.84434 0.300068 3.76772 0.413494 3.72132C0.526919 3.67492 0.650899 3.66051 0.771942 3.67968C0.892985 3.69884 1.00645 3.75083 1.1 3.83L7.46 8.83C7.63816 8.97453 7.86059 9.0534 8.09 9.0534C8.31941 9.0534 8.54184 8.97453 8.72 8.83L14.97 3.83C15.0572 3.75729 15.163 3.71035 15.2754 3.69448C15.3878 3.67861 15.5024 3.69442 15.6063 3.74015C15.7103 3.78587 15.7994 3.85969 15.8636 3.9533C15.9278 4.04691 15.9647 4.15659 15.97 4.27V10.88C16 11.25 15.91 11.5 15.54 11.5Z" fill="#363D43"/>
</g>
<defs>
<clipPath id="clip0_1020_3528">
<rect width="16" height="11.5" fill="white"/>
</clipPath>
</defs>
</svg>
