<svg width="13" height="13" viewBox="0 0 13 13" fill="none" xmlns="http://www.w3.org/2000/svg">
<path d="M3.42863 8.04989C3.24626 7.89595 3.11783 7.68778 3.06207 7.45573C3.0063 7.22368 3.02612 6.97988 3.11863 6.75989C3.54148 6.16238 4.02031 5.60653 4.54863 5.09989L4.81863 4.81989L5.09863 4.54989C5.60528 4.02156 6.16112 3.54273 6.75863 3.11989C6.97863 3.02738 7.22242 3.00756 7.45447 3.06332C7.68652 3.11909 7.89469 3.24752 8.04863 3.42989C8.29863 3.74989 8.58863 4.30989 8.75863 4.33989C10.1526 3.89711 11.4026 3.08913 12.3786 1.99989C12.3786 1.99989 12.4586 1.57989 11.5586 0.859886C11.2123 0.550767 10.8069 0.31516 10.3668 0.167335C9.9268 0.0195102 9.46133 -0.0374563 8.99863 -0.000114103C7.98663 0.316582 7.05526 0.848791 6.26863 1.55989C5.36526 2.21382 4.5189 2.94309 3.73863 3.73989C2.94184 4.52016 2.21257 5.36652 1.55863 6.26989C0.853291 7.06067 0.321829 7.99073 -0.00136785 8.99989C-0.044282 9.46909 0.00993262 9.94211 0.157895 10.3894C0.305858 10.8368 0.544395 11.2488 0.858632 11.5999C1.57863 12.4999 1.99863 12.4199 1.99863 12.4199C3.09386 11.4328 3.9023 10.1683 4.33863 8.75989C4.30863 8.58989 3.74863 8.29989 3.42863 8.04989Z" fill="#363D43"/>
</svg>
