<svg width="42" height="42" viewBox="0 0 42 42" fill="none" xmlns="http://www.w3.org/2000/svg">
<g clip-path="url(#clip0_1020_3926)">
<path d="M20.9118 13.5098H17.3418V9.93985C17.3418 9.78774 17.2821 9.64171 17.1755 9.53322C17.0689 9.42473 16.9239 9.36247 16.7718 9.35985H14.0918C14.0161 9.35984 13.9412 9.37491 13.8713 9.40417C13.8015 9.43344 13.7382 9.47632 13.6852 9.53032C13.6321 9.58431 13.5903 9.64833 13.5623 9.71865C13.5342 9.78896 13.5205 9.86416 13.5218 9.93985V13.5098H9.9418C9.79143 13.5124 9.64794 13.5733 9.54159 13.6796C9.43525 13.786 9.37437 13.9295 9.3718 14.0798V16.7598C9.37437 16.9102 9.43525 17.0537 9.54159 17.1601C9.64794 17.2664 9.79143 17.3273 9.9418 17.3298H13.5218V20.8998C13.5205 20.9755 13.5342 21.0507 13.5623 21.1211C13.5903 21.1914 13.6321 21.2554 13.6852 21.3094C13.7382 21.3634 13.8015 21.4063 13.8713 21.4355C13.9412 21.4648 14.0161 21.4799 14.0918 21.4798H16.7718C16.9239 21.4772 17.0689 21.415 17.1755 21.3065C17.2821 21.198 17.3418 21.052 17.3418 20.8998V17.3298H20.9118C21.0639 17.3299 21.2099 17.2701 21.3184 17.1635C21.4269 17.0569 21.4892 16.9119 21.4918 16.7598V14.0798C21.4892 13.9278 21.4269 13.7828 21.3184 13.6762C21.2099 13.5696 21.0639 13.5098 20.9118 13.5098ZM40.7818 35.0598L28.7818 23.0598C30.642 19.8135 31.2602 16.0021 30.5213 12.3343C29.7824 8.66639 27.7367 5.39161 24.7647 3.11873C21.7926 0.845854 18.0963 -0.270482 14.363 -0.022737C10.6296 0.225008 7.11328 1.81998 4.4676 4.46565C1.82193 7.11132 0.226961 10.6277 -0.0207839 14.361C-0.268528 18.0944 0.847807 21.7907 3.12069 24.7627C5.39357 27.7348 8.66834 29.7804 12.3362 30.5193C16.0041 31.2582 19.8155 30.6401 23.0618 28.7799L35.0618 40.7798C35.3656 41.0833 35.7774 41.2538 36.2068 41.2538C36.6362 41.2538 37.048 41.0833 37.3518 40.7798L40.7818 37.3498C41.0853 37.0461 41.2558 36.6342 41.2558 36.2048C41.2558 35.7755 41.0853 35.3636 40.7818 35.0598ZM22.3218 22.3198C20.9599 23.6826 19.2244 24.6109 17.3349 24.9872C15.4453 25.3636 13.4866 25.171 11.7065 24.434C9.92636 23.697 8.40481 22.4486 7.33428 20.8468C6.26376 19.2449 5.69236 17.3615 5.69236 15.4348C5.69236 13.5082 6.26376 11.6248 7.33428 10.0229C8.40481 8.42107 9.92636 7.17267 11.7065 6.43566C13.4866 5.69865 15.4453 5.50613 17.3349 5.88246C19.2244 6.25879 20.9599 7.18706 22.3218 8.54985C24.147 10.3763 25.1724 12.8527 25.1724 15.4348C25.1724 18.017 24.147 20.4934 22.3218 22.3198Z" fill="url(#paint0_linear_1020_3926)"/>
</g>
<defs>
<linearGradient id="paint0_linear_1020_3926" x1="0.00180172" y1="20.6298" x2="41.2518" y2="20.6298" gradientUnits="userSpaceOnUse">
<stop stop-color="#18B9E9"/>
<stop offset="0.65" stop-color="#5572FD"/>
<stop offset="1" stop-color="#3759F2"/>
</linearGradient>
<clipPath id="clip0_1020_3926">
<rect width="41.25" height="41.25" fill="white"/>
</clipPath>
</defs>
</svg>
