<svg width="14" height="20" viewBox="0 0 14 20" fill="none" xmlns="http://www.w3.org/2000/svg">
<g clip-path="url(#clip0_1020_3888)">
<path d="M13.2816 6.94024C13.2832 6.00485 13.0778 5.08069 12.6801 4.23403C12.2824 3.38737 11.7024 2.6392 10.9815 2.04316C10.2605 1.44712 9.41669 1.01798 8.51038 0.786522C7.60408 0.55506 6.65778 0.52701 5.73936 0.704381C4.82093 0.881753 3.95314 1.26015 3.19819 1.81244C2.44325 2.36474 1.81987 3.07723 1.37275 3.89885C0.925638 4.72046 0.665863 5.63084 0.61206 6.56468C0.558256 7.49853 0.711757 8.43271 1.06155 9.30024V9.30024C1.23679 9.73781 1.46159 10.1539 1.73155 10.5402L6.34155 19.1202H7.54155L12.1516 10.5402C12.4215 10.1539 12.6463 9.73781 12.8216 9.30024V9.30024C13.1274 8.55113 13.2837 7.74939 13.2816 6.94024V6.94024Z" stroke="#686F75" stroke-width="1.2" stroke-linecap="round" stroke-linejoin="round"/>
<path d="M6.94125 8.59979C7.85804 8.59979 8.60125 7.85658 8.60125 6.93979C8.60125 6.02299 7.85804 5.27979 6.94125 5.27979C6.02446 5.27979 5.28125 6.02299 5.28125 6.93979C5.28125 7.85658 6.02446 8.59979 6.94125 8.59979Z" stroke="#686F75" stroke-width="1.2" stroke-linecap="round" stroke-linejoin="round"/>
</g>
<defs>
<clipPath id="clip0_1020_3888">
<rect width="13.88" height="19.72" fill="white"/>
</clipPath>
</defs>
</svg>
