<svg width="20" height="15" viewBox="0 0 20 15" fill="none" xmlns="http://www.w3.org/2000/svg">
<g clip-path="url(#clip0_1020_3878)">
<path d="M7.03938 8.9601C9.34793 8.9601 11.2194 7.08865 11.2194 4.7801C11.2194 2.47155 9.34793 0.600098 7.03938 0.600098C4.73082 0.600098 2.85938 2.47155 2.85938 4.7801C2.85938 7.08865 4.73082 8.9601 7.03938 8.9601Z" stroke="#686F75" stroke-width="1.2" stroke-linecap="round" stroke-linejoin="round"/>
<path d="M6.9984 9L12.1384 10.4C12.3273 10.4497 12.5006 10.5464 12.6422 10.681C12.7838 10.8156 12.8892 10.9838 12.9484 11.17L13.3884 12.48C13.4341 12.6194 13.4463 12.7676 13.4238 12.9126C13.4013 13.0575 13.3448 13.1951 13.259 13.3141C13.1732 13.433 13.0605 13.53 12.93 13.5971C12.7996 13.6642 12.6551 13.6994 12.5084 13.7H1.5084C1.36172 13.6994 1.21724 13.6642 1.08679 13.5971C0.956328 13.53 0.843588 13.433 0.757774 13.3141C0.671959 13.1951 0.615504 13.0575 0.593021 12.9126C0.570537 12.7676 0.582662 12.6194 0.628405 12.48L1.0684 11.17C1.12765 10.9838 1.23296 10.8156 1.37456 10.681C1.51616 10.5464 1.68947 10.4497 1.8784 10.4L6.9984 9Z" stroke="#686F75" stroke-width="1.2" stroke-linecap="round" stroke-linejoin="round"/>
<path d="M11.4216 3.8402C11.7776 3.40962 12.2407 3.08043 12.7644 2.88578C13.2881 2.69112 13.8538 2.63787 14.4046 2.73139C14.9555 2.82491 15.4719 3.06189 15.902 3.41848C16.3321 3.77507 16.6607 4.23868 16.8546 4.76263C17.0486 5.28658 17.101 5.85238 17.0068 6.40307C16.9125 6.95375 16.6748 7.46988 16.3176 7.8995C15.9605 8.32911 15.4964 8.65704 14.9722 8.85027C14.448 9.0435 13.8821 9.09522 13.3316 9.0002C12.7691 8.90151 12.243 8.65502 11.8072 8.286C11.3714 7.91698 11.0416 7.4387 10.8516 6.9002" stroke="#686F75" stroke-width="1.2" stroke-linecap="round" stroke-linejoin="round"/>
<path d="M13.8594 9.0498L17.7694 10.1198C17.9117 10.1596 18.0424 10.2331 18.1503 10.334C18.2582 10.435 18.3402 10.5604 18.3894 10.6998L18.7194 11.6998C18.754 11.806 18.7631 11.9188 18.7459 12.0292C18.7287 12.1395 18.6857 12.2442 18.6204 12.3348C18.5551 12.4255 18.4694 12.4994 18.3702 12.5506C18.271 12.6019 18.161 12.629 18.0494 12.6298H13.8594" stroke="#686F75" stroke-width="1.2" stroke-linecap="round" stroke-linejoin="round"/>
</g>
<defs>
<clipPath id="clip0_1020_3878">
<rect width="19.36" height="14.27" fill="white"/>
</clipPath>
</defs>
</svg>
