<svg width="19" height="17" viewBox="0 0 19 17" fill="none" xmlns="http://www.w3.org/2000/svg">
<g clip-path="url(#clip0_1020_3895)">
<path d="M3.25781 0.600098H14.9778" stroke="#686F75" stroke-width="1.2" stroke-linecap="round" stroke-linejoin="round"/>
<path d="M3.26156 0.600173C2.55609 0.600173 1.87951 0.880422 1.38066 1.37927C0.881812 1.87812 0.601563 2.5547 0.601562 3.26017V16.1002L3.53156 13.7802L6.46156 16.1002L9.39156 13.7802L12.3216 16.1002V3.26017C12.3216 2.90917 12.391 2.56163 12.5259 2.23759C12.6609 1.91356 12.8586 1.61943 13.1077 1.37216C13.3568 1.1249 13.6524 0.929379 13.9775 0.796884C14.3025 0.664389 14.6506 0.597534 15.0016 0.600173V0.600173C15.708 0.600168 16.3856 0.880098 16.886 1.37866C17.3864 1.87722 17.6689 2.55378 17.6716 3.26017V5.39017H13.0016" stroke="#686F75" stroke-width="1.2" stroke-linecap="round" stroke-linejoin="round"/>
<path d="M3.79688 11.25V4.77002H7.32687C7.80161 4.77002 8.25691 4.95861 8.5926 5.2943C8.92829 5.62999 9.11687 6.08528 9.11687 6.56002V6.56002C9.11687 7.03476 8.92829 7.49005 8.5926 7.82574C8.25691 8.16143 7.80161 8.35002 7.32687 8.35002H4.32687" stroke="#686F75" stroke-width="1.2" stroke-linecap="round" stroke-linejoin="round"/>
<path d="M6.45688 10.2798H3.79688" stroke="#686F75" stroke-width="1.2" stroke-linecap="round" stroke-linejoin="round"/>
</g>
<defs>
<clipPath id="clip0_1020_3895">
<rect width="18.25" height="16.7" fill="white"/>
</clipPath>
</defs>
</svg>
