<svg width="36" height="50" viewBox="0 0 36 50" fill="none" xmlns="http://www.w3.org/2000/svg">
<path d="M4.89 19.1701C3.07 19.1701 1.47 19.2501 0 19.3901C0 19.6701 0.05 19.9601 0.08 20.2301C0.25548 21.7638 0.563294 23.2794 1 24.7601C2.23 24.6801 3.52 24.6301 4.89 24.6301C8.08714 24.6307 11.2785 24.9017 14.43 25.4401L16.52 20.5601C12.7381 19.5002 8.81513 19.0313 4.89 19.1701ZM35.89 15.9801L35.64 16.0301C33.2159 16.4079 30.7623 16.5618 28.31 16.4901H28.2C25.0029 16.4894 21.8115 16.2185 18.66 15.6801L16.57 20.5601C20.3552 21.5193 24.2452 22.003 28.15 22.0001C30.59 22.0001 32.8 21.7601 34.54 21.6501L35.65 21.4801C35.71 21.0901 35.77 20.7001 35.81 20.3101C35.9212 19.5448 35.9846 18.7733 36 18.0001C35.9857 17.3309 35.9323 16.663 35.84 16.0001L35.89 15.9801ZM27.91 27.3001C23.3579 27.3451 18.8215 26.7595 14.43 25.5601C13.73 27.1901 13.15 28.7001 12.56 29.9801C15 31.1401 20 32.8901 28.15 32.8901C29.35 32.8901 30.47 32.8901 31.55 32.7601C32.5426 30.925 33.408 29.0238 34.14 27.0701C32.0746 27.3354 29.9893 27.4124 27.91 27.3001ZM10.36 35.0001C10.82 34.0001 11.36 32.4401 12.22 30.5801C9.78739 30.2863 7.3402 30.1294 4.89 30.1101C4.22333 30.1101 3.60333 30.1101 3.03 30.1101C7.65 40.1101 15.9 48.4101 16.35 48.8701C16.7765 49.2909 17.3509 49.5278 17.95 49.5301C18.5465 49.5295 19.1184 49.2921 19.54 48.8701C22.7221 45.5807 25.616 42.0243 28.19 38.2401H27.8C19.42 38.2301 13.73 36.4901 10.36 35.0001ZM20.82 10.3301C23.2795 10.7301 25.7682 10.9241 28.26 10.9101H28.84C30.3603 10.9169 31.8787 10.7998 33.38 10.5601L34.27 10.4401C32.8319 7.3326 30.5373 4.69977 27.6554 2.85058C24.7736 1.00138 21.4241 0.0125302 18 7.23173e-05C14.6092 -0.00958334 11.2859 0.947849 8.42 2.76007C13.3211 2.96702 18.1478 4.03322 22.68 5.91007C22.22 7.00007 21.63 8.47007 20.82 10.3301ZM18.61 15.4401C19.31 13.8201 19.89 12.4401 20.47 11.0301C18 9.86007 13 8.12007 4.89 8.12007C4.22 8.12007 3.55 8.12007 2.89 8.12007C1.7464 9.8731 0.917309 11.8122 0.44 13.8501C1.83 13.7601 3.3 13.7001 4.89 13.7001C9.524 13.6026 14.1471 14.1889 18.61 15.4401Z" fill="url(#paint0_linear_1020_3518)"/>
<defs>
<linearGradient id="paint0_linear_1020_3518" x1="0" y1="24.7701" x2="35.96" y2="24.7701" gradientUnits="userSpaceOnUse">
<stop stop-color="#18B9E9"/>
<stop offset="0.65" stop-color="#5572FD"/>
<stop offset="1" stop-color="#3759F2"/>
</linearGradient>
</defs>
</svg>
