<svg width="114" height="108" viewBox="0 0 114 108" fill="none" xmlns="http://www.w3.org/2000/svg">
<g clip-path="url(#clip0_1020_3820)">
<path d="M35.8283 104.78C35.8283 105.258 35.6864 105.726 35.4204 106.124C35.1545 106.522 34.7766 106.832 34.3344 107.016C33.8922 107.199 33.4056 107.247 32.9362 107.153C32.4667 107.06 32.0355 106.83 31.6971 106.491C31.3586 106.153 31.1282 105.721 31.0348 105.252C30.9414 104.783 30.9893 104.296 31.1725 103.854C31.3557 103.412 31.6658 103.034 32.0638 102.768C32.4618 102.502 32.9297 102.36 33.4083 102.36C34.0493 102.362 34.6633 102.618 35.1166 103.072C35.5698 103.525 35.8257 104.139 35.8283 104.78Z" fill="white"/>
<path d="M51.3205 104.78C51.3205 105.258 51.1785 105.726 50.9126 106.124C50.6467 106.522 50.2688 106.832 49.8266 107.016C49.3844 107.199 48.8978 107.247 48.4284 107.153C47.9589 107.06 47.5277 106.83 47.1893 106.491C46.8508 106.153 46.6203 105.721 46.527 105.252C46.4336 104.783 46.4815 104.296 46.6647 103.854C46.8478 103.412 47.158 103.034 47.556 102.768C47.954 102.502 48.4218 102.36 48.9005 102.36C49.5423 102.36 50.1578 102.615 50.6117 103.069C51.0655 103.523 51.3205 104.138 51.3205 104.78Z" fill="white"/>
<path d="M66.8087 104.78C66.8087 105.258 66.6668 105.726 66.4009 106.124C66.135 106.522 65.757 106.832 65.3148 107.016C64.8726 107.199 64.3861 107.247 63.9166 107.153C63.4472 107.06 63.016 106.83 62.6776 106.491C62.3391 106.153 62.1086 105.721 62.0153 105.252C61.9219 104.783 61.9698 104.296 62.153 103.854C62.3361 103.412 62.6463 103.034 63.0443 102.768C63.4422 102.502 63.9101 102.36 64.3888 102.36C65.0306 102.36 65.6461 102.615 66.0999 103.069C66.5538 103.523 66.8087 104.138 66.8087 104.78Z" fill="white"/>
<path d="M82.3092 104.78C82.3112 105.261 82.1701 105.733 81.9038 106.134C81.6376 106.535 81.2582 106.848 80.8138 107.033C80.3693 107.218 79.8799 107.267 79.4076 107.174C78.9353 107.08 78.5014 106.849 78.161 106.508C77.8205 106.168 77.5889 105.734 77.4954 105.261C77.402 104.789 77.451 104.3 77.6361 103.855C77.8213 103.411 78.1343 103.031 78.5354 102.765C78.9366 102.499 79.4077 102.358 79.8892 102.36C80.5302 102.363 81.1442 102.618 81.5975 103.072C82.0508 103.525 82.3066 104.139 82.3092 104.78Z" fill="white"/>
<path d="M20.3283 90.15C20.3283 90.6286 20.1864 91.0965 19.9204 91.4945C19.6545 91.8924 19.2766 92.2026 18.8344 92.3858C18.3922 92.5689 17.9056 92.6169 17.4362 92.5235C16.9667 92.4301 16.5355 92.1996 16.1971 91.8612C15.8586 91.5227 15.6282 91.0915 15.5348 90.6221C15.4414 90.1527 15.4893 89.6661 15.6725 89.2239C15.8557 88.7817 16.1658 88.4037 16.5638 88.1378C16.9618 87.8719 17.4297 87.73 17.9083 87.73C18.2261 87.73 18.5408 87.7926 18.8344 87.9142C19.128 88.0358 19.3948 88.2141 19.6195 88.4388C19.8442 88.6635 20.0225 88.9303 20.1441 89.2239C20.2657 89.5175 20.3283 89.8322 20.3283 90.15Z" fill="white"/>
<path d="M35.8283 90.15C35.8283 90.6286 35.6864 91.0965 35.4204 91.4945C35.1545 91.8924 34.7766 92.2026 34.3344 92.3858C33.8922 92.5689 33.4056 92.6169 32.9362 92.5235C32.4667 92.4301 32.0355 92.1996 31.6971 91.8612C31.3586 91.5227 31.1282 91.0915 31.0348 90.6221C30.9414 90.1527 30.9893 89.6661 31.1725 89.2239C31.3557 88.7817 31.6658 88.4037 32.0638 88.1378C32.4618 87.8719 32.9297 87.73 33.4083 87.73C34.0493 87.7326 34.6633 87.9884 35.1166 88.4417C35.5698 88.895 35.8257 89.509 35.8283 90.15Z" fill="white"/>
<path d="M51.3205 90.15C51.3205 90.6286 51.1785 91.0965 50.9126 91.4945C50.6467 91.8924 50.2688 92.2026 49.8266 92.3858C49.3844 92.5689 48.8978 92.6169 48.4284 92.5235C47.9589 92.4301 47.5277 92.1996 47.1893 91.8612C46.8508 91.5227 46.6203 91.0915 46.527 90.6221C46.4336 90.1527 46.4815 89.6661 46.6647 89.2239C46.8478 88.7817 47.158 88.4037 47.556 88.1378C47.954 87.8719 48.4218 87.73 48.9005 87.73C49.5423 87.73 50.1578 87.9849 50.6117 88.4388C51.0655 88.8926 51.3205 89.5082 51.3205 90.15Z" fill="white"/>
<path d="M66.8087 90.15C66.8087 90.6286 66.6668 91.0965 66.4009 91.4945C66.135 91.8924 65.757 92.2026 65.3148 92.3858C64.8726 92.5689 64.3861 92.6169 63.9166 92.5235C63.4472 92.4301 63.016 92.1996 62.6776 91.8612C62.3391 91.5227 62.1086 91.0915 62.0153 90.6221C61.9219 90.1527 61.9698 89.6661 62.153 89.2239C62.3361 88.7817 62.6463 88.4037 63.0443 88.1378C63.4422 87.8719 63.9101 87.73 64.3888 87.73C65.0306 87.73 65.6461 87.9849 66.0999 88.4388C66.5538 88.8926 66.8087 89.5082 66.8087 90.15Z" fill="white"/>
<path d="M82.3092 90.15C82.3112 90.6315 82.1701 91.1026 81.9038 91.5038C81.6376 91.9049 81.2582 92.2179 80.8138 92.4031C80.3693 92.5882 79.8799 92.6372 79.4076 92.5438C78.9353 92.4503 78.5014 92.2187 78.161 91.8782C77.8205 91.5378 77.5889 91.1039 77.4954 90.6316C77.402 90.1593 77.451 89.6699 77.6361 89.2254C77.8213 88.781 78.1343 88.4016 78.5354 88.1354C78.9366 87.8691 79.4077 87.728 79.8892 87.73C80.5302 87.7326 81.1442 87.9884 81.5975 88.4417C82.0508 88.895 82.3066 89.509 82.3092 90.15Z" fill="white"/>
<path d="M97.8009 90.15C97.8009 90.6286 97.659 91.0965 97.3931 91.4945C97.1272 91.8924 96.7492 92.2026 96.307 92.3858C95.8648 92.5689 95.3783 92.6169 94.9088 92.5235C94.4394 92.4301 94.0082 92.1996 93.6697 91.8612C93.3313 91.5227 93.1008 91.0915 93.0074 90.6221C92.9141 90.1527 92.962 89.6661 93.1451 89.2239C93.3283 88.7817 93.6385 88.4037 94.0365 88.1378C94.4344 87.8719 94.9023 87.73 95.3809 87.73C96.0219 87.7326 96.636 87.9884 97.0892 88.4417C97.5425 88.895 97.7983 89.509 97.8009 90.15Z" fill="white"/>
<path d="M20.3283 75.5299C20.3283 76.0085 20.1864 76.4764 19.9204 76.8743C19.6545 77.2723 19.2766 77.5825 18.8344 77.7656C18.3922 77.9488 17.9056 77.9967 17.4362 77.9034C16.9667 77.81 16.5355 77.5795 16.1971 77.2411C15.8586 76.9026 15.6282 76.4714 15.5348 76.002C15.4414 75.5325 15.4893 75.046 15.6725 74.6038C15.8557 74.1616 16.1658 73.7836 16.5638 73.5177C16.9618 73.2518 17.4297 73.1099 17.9083 73.1099C18.2261 73.1099 18.5408 73.1725 18.8344 73.2941C19.128 73.4157 19.3948 73.5939 19.6195 73.8187C19.8442 74.0434 20.0225 74.3102 20.1441 74.6038C20.2657 74.8974 20.3283 75.2121 20.3283 75.5299Z" fill="white"/>
<path d="M35.8283 75.5299C35.8283 76.0085 35.6864 76.4764 35.4204 76.8743C35.1545 77.2723 34.7766 77.5825 34.3344 77.7656C33.8922 77.9488 33.4056 77.9967 32.9362 77.9034C32.4667 77.81 32.0355 77.5795 31.6971 77.2411C31.3586 76.9026 31.1282 76.4714 31.0348 76.002C30.9414 75.5325 30.9893 75.046 31.1725 74.6038C31.3557 74.1616 31.6658 73.7836 32.0638 73.5177C32.4618 73.2518 32.9297 73.1099 33.4083 73.1099C34.0501 73.1099 34.6656 73.3648 35.1195 73.8187C35.5733 74.2725 35.8283 74.888 35.8283 75.5299Z" fill="white"/>
<path d="M51.3205 75.5299C51.3205 76.0085 51.1785 76.4764 50.9126 76.8743C50.6467 77.2723 50.2688 77.5825 49.8266 77.7656C49.3844 77.9488 48.8978 77.9967 48.4284 77.9034C47.9589 77.81 47.5277 77.5795 47.1893 77.2411C46.8508 76.9026 46.6203 76.4714 46.527 76.002C46.4336 75.5325 46.4815 75.046 46.6647 74.6038C46.8478 74.1616 47.158 73.7836 47.556 73.5177C47.954 73.2518 48.4218 73.1099 48.9005 73.1099C49.5423 73.1099 50.1578 73.3648 50.6117 73.8187C51.0655 74.2725 51.3205 74.888 51.3205 75.5299Z" fill="white"/>
<path d="M66.8087 75.5299C66.8087 76.0085 66.6668 76.4764 66.4009 76.8743C66.135 77.2723 65.757 77.5825 65.3148 77.7656C64.8726 77.9488 64.3861 77.9967 63.9166 77.9034C63.4472 77.81 63.016 77.5795 62.6776 77.2411C62.3391 76.9026 62.1086 76.4714 62.0153 76.002C61.9219 75.5325 61.9698 75.046 62.153 74.6038C62.3361 74.1616 62.6463 73.7836 63.0443 73.5177C63.4422 73.2518 63.9101 73.1099 64.3888 73.1099C65.0306 73.1099 65.6461 73.3648 66.0999 73.8187C66.5538 74.2725 66.8087 74.888 66.8087 75.5299Z" fill="white"/>
<path d="M82.3092 75.5299C82.3112 76.0113 82.1701 76.4825 81.9038 76.8837C81.6376 77.2848 81.2582 77.5978 80.8138 77.783C80.3693 77.9681 79.8799 78.0171 79.4076 77.9237C78.9353 77.8302 78.5014 77.5986 78.161 77.2581C77.8205 76.9177 77.5889 76.4838 77.4954 76.0115C77.402 75.5392 77.451 75.0498 77.6361 74.6053C77.8213 74.1609 78.1343 73.7815 78.5354 73.5152C78.9366 73.249 79.4077 73.1079 79.8892 73.1099C80.531 73.1099 81.1466 73.3648 81.6004 73.8187C82.0542 74.2725 82.3092 74.8881 82.3092 75.5299Z" fill="white"/>
<path d="M97.8009 75.5299C97.8009 76.0085 97.659 76.4764 97.3931 76.8743C97.1272 77.2723 96.7492 77.5825 96.307 77.7656C95.8648 77.9488 95.3783 77.9967 94.9088 77.9034C94.4394 77.81 94.0082 77.5795 93.6697 77.2411C93.3313 76.9026 93.1008 76.4714 93.0074 76.002C92.9141 75.5325 92.962 75.046 93.1451 74.6038C93.3283 74.1616 93.6385 73.7836 94.0365 73.5177C94.4344 73.2518 94.9023 73.1099 95.3809 73.1099C96.0228 73.1099 96.6383 73.3648 97.0921 73.8187C97.546 74.2725 97.8009 74.888 97.8009 75.5299Z" fill="white"/>
<path d="M4.84 60.9102C4.84 61.3889 4.69807 61.8567 4.43216 62.2547C4.16624 62.6527 3.78829 62.9629 3.3461 63.146C2.9039 63.3292 2.41732 63.3771 1.94788 63.2837C1.47845 63.1904 1.04725 62.9599 0.708803 62.6214C0.37036 62.283 0.139877 61.8518 0.0465007 61.3824C-0.0468755 60.9129 0.00104855 60.4263 0.184213 59.9841C0.367377 59.5419 0.677554 59.164 1.07552 58.8981C1.47349 58.6322 1.94137 58.4902 2.42 58.4902C3.06183 58.4902 3.67736 58.7452 4.1312 59.199C4.58504 59.6529 4.84 60.2684 4.84 60.9102Z" fill="white"/>
<path d="M20.3283 60.9102C20.3283 61.3889 20.1864 61.8567 19.9204 62.2547C19.6545 62.6527 19.2766 62.9629 18.8344 63.146C18.3922 63.3292 17.9056 63.3771 17.4362 63.2837C16.9667 63.1904 16.5355 62.9599 16.1971 62.6214C15.8586 62.283 15.6282 61.8518 15.5348 61.3824C15.4414 60.9129 15.4893 60.4263 15.6725 59.9841C15.8557 59.5419 16.1658 59.164 16.5638 58.8981C16.9618 58.6322 17.4297 58.4902 17.9083 58.4902C18.2261 58.4902 18.5408 58.5528 18.8344 58.6744C19.128 58.7961 19.3948 58.9743 19.6195 59.199C19.8442 59.4238 20.0225 59.6905 20.1441 59.9841C20.2657 60.2777 20.3283 60.5924 20.3283 60.9102Z" fill="white"/>
<path d="M35.8283 60.9102C35.8283 61.3889 35.6864 61.8567 35.4204 62.2547C35.1545 62.6527 34.7766 62.9629 34.3344 63.146C33.8922 63.3292 33.4056 63.3771 32.9362 63.2837C32.4667 63.1904 32.0355 62.9599 31.6971 62.6214C31.3586 62.283 31.1282 61.8518 31.0348 61.3824C30.9414 60.9129 30.9893 60.4263 31.1725 59.9841C31.3557 59.5419 31.6658 59.164 32.0638 58.8981C32.4618 58.6322 32.9297 58.4902 33.4083 58.4902C34.0501 58.4902 34.6656 58.7452 35.1195 59.199C35.5733 59.6529 35.8283 60.2684 35.8283 60.9102Z" fill="white"/>
<path d="M51.3205 60.9102C51.3205 61.3889 51.1785 61.8567 50.9126 62.2547C50.6467 62.6527 50.2688 62.9629 49.8266 63.146C49.3844 63.3292 48.8978 63.3771 48.4284 63.2837C47.9589 63.1904 47.5277 62.9599 47.1893 62.6214C46.8508 62.283 46.6203 61.8518 46.527 61.3824C46.4336 60.9129 46.4815 60.4263 46.6647 59.9841C46.8478 59.5419 47.158 59.164 47.556 58.8981C47.954 58.6322 48.4218 58.4902 48.9005 58.4902C49.5423 58.4902 50.1578 58.7452 50.6117 59.199C51.0655 59.6529 51.3205 60.2684 51.3205 60.9102Z" fill="white"/>
<path d="M66.8087 60.9102C66.8087 61.3889 66.6668 61.8567 66.4009 62.2547C66.135 62.6527 65.757 62.9629 65.3148 63.146C64.8726 63.3292 64.3861 63.3771 63.9166 63.2837C63.4472 63.1904 63.016 62.9599 62.6776 62.6214C62.3391 62.283 62.1086 61.8518 62.0153 61.3824C61.9219 60.9129 61.9698 60.4263 62.153 59.9841C62.3361 59.5419 62.6463 59.164 63.0443 58.8981C63.4422 58.6322 63.9101 58.4902 64.3888 58.4902C65.0306 58.4902 65.6461 58.7452 66.0999 59.199C66.5538 59.6529 66.8087 60.2684 66.8087 60.9102Z" fill="white"/>
<path d="M82.3092 60.9098C82.3112 61.3912 82.1701 61.8624 81.9038 62.2636C81.6376 62.6647 81.2582 62.9777 80.8138 63.1629C80.3693 63.348 79.8799 63.397 79.4076 63.3035C78.9353 63.2101 78.5014 62.9785 78.161 62.638C77.8205 62.2976 77.5889 61.8637 77.4954 61.3914C77.402 60.9191 77.451 60.4296 77.6361 59.9852C77.8213 59.5408 78.1343 59.1614 78.5354 58.8951C78.9366 58.6289 79.4077 58.4878 79.8892 58.4898C80.531 58.4898 81.1466 58.7447 81.6004 59.1986C82.0542 59.6524 82.3092 60.2679 82.3092 60.9098Z" fill="white"/>
<path d="M97.8009 60.9102C97.8009 61.3889 97.659 61.8567 97.3931 62.2547C97.1272 62.6527 96.7492 62.9629 96.307 63.146C95.8648 63.3292 95.3783 63.3771 94.9088 63.2837C94.4394 63.1904 94.0082 62.9599 93.6697 62.6214C93.3313 62.283 93.1008 61.8518 93.0074 61.3824C92.9141 60.9129 92.962 60.4263 93.1451 59.9841C93.3283 59.5419 93.6385 59.164 94.0365 58.8981C94.4344 58.6322 94.9023 58.4902 95.3809 58.4902C96.0228 58.4902 96.6383 58.7452 97.0921 59.199C97.546 59.6529 97.8009 60.2684 97.8009 60.9102Z" fill="white"/>
<path d="M110.869 63.3302C112.206 63.3302 113.289 62.2468 113.289 60.9102C113.289 59.5737 112.206 58.4902 110.869 58.4902C109.533 58.4902 108.449 59.5737 108.449 60.9102C108.449 62.2468 109.533 63.3302 110.869 63.3302Z" fill="white"/>
<path d="M4.84 46.2901C4.84 46.7687 4.69807 47.2366 4.43216 47.6346C4.16624 48.0326 3.78829 48.3427 3.3461 48.5259C2.9039 48.7091 2.41732 48.757 1.94788 48.6636C1.47845 48.5702 1.04725 48.3398 0.708803 48.0013C0.37036 47.6629 0.139877 47.2317 0.0465007 46.7622C-0.0468755 46.2928 0.00104855 45.8062 0.184213 45.364C0.367377 44.9218 0.677554 44.5439 1.07552 44.278C1.47349 44.012 1.94137 43.8701 2.42 43.8701C3.06183 43.8701 3.67736 44.1251 4.1312 44.5789C4.58504 45.0328 4.84 45.6483 4.84 46.2901Z" fill="white"/>
<path d="M20.3283 46.2901C20.3283 46.7687 20.1864 47.2366 19.9204 47.6346C19.6545 48.0326 19.2766 48.3427 18.8344 48.5259C18.3922 48.7091 17.9056 48.757 17.4362 48.6636C16.9667 48.5702 16.5355 48.3398 16.1971 48.0013C15.8586 47.6629 15.6282 47.2317 15.5348 46.7622C15.4414 46.2928 15.4893 45.8062 15.6725 45.364C15.8557 44.9218 16.1658 44.5439 16.5638 44.278C16.9618 44.012 17.4297 43.8701 17.9083 43.8701C18.2261 43.8701 18.5408 43.9327 18.8344 44.0543C19.128 44.1759 19.3948 44.3542 19.6195 44.5789C19.8442 44.8036 20.0225 45.0704 20.1441 45.364C20.2657 45.6576 20.3283 45.9723 20.3283 46.2901Z" fill="white"/>
<path d="M35.8283 46.2901C35.8283 46.7687 35.6864 47.2366 35.4204 47.6346C35.1545 48.0326 34.7766 48.3427 34.3344 48.5259C33.8922 48.7091 33.4056 48.757 32.9362 48.6636C32.4667 48.5702 32.0355 48.3398 31.6971 48.0013C31.3586 47.6629 31.1282 47.2317 31.0348 46.7622C30.9414 46.2928 30.9893 45.8062 31.1725 45.364C31.3557 44.9218 31.6658 44.5439 32.0638 44.278C32.4618 44.012 32.9297 43.8701 33.4083 43.8701C34.0493 43.8727 34.6633 44.1286 35.1166 44.5818C35.5698 45.0351 35.8257 45.6491 35.8283 46.2901Z" fill="white"/>
<path d="M51.3205 46.2901C51.3205 46.7687 51.1785 47.2366 50.9126 47.6346C50.6467 48.0326 50.2688 48.3427 49.8266 48.5259C49.3844 48.7091 48.8978 48.757 48.4284 48.6636C47.9589 48.5702 47.5277 48.3398 47.1893 48.0013C46.8508 47.6629 46.6203 47.2317 46.527 46.7622C46.4336 46.2928 46.4815 45.8062 46.6647 45.364C46.8478 44.9218 47.158 44.5439 47.556 44.278C47.954 44.012 48.4218 43.8701 48.9005 43.8701C49.5423 43.8701 50.1578 44.1251 50.6117 44.5789C51.0655 45.0328 51.3205 45.6483 51.3205 46.2901Z" fill="white"/>
<path d="M66.8087 46.2901C66.8087 46.7687 66.6668 47.2366 66.4009 47.6346C66.135 48.0326 65.757 48.3427 65.3148 48.5259C64.8726 48.7091 64.3861 48.757 63.9166 48.6636C63.4472 48.5702 63.016 48.3398 62.6776 48.0013C62.3391 47.6629 62.1086 47.2317 62.0153 46.7622C61.9219 46.2928 61.9698 45.8062 62.153 45.364C62.3361 44.9218 62.6463 44.5439 63.0443 44.278C63.4422 44.012 63.9101 43.8701 64.3888 43.8701C65.0306 43.8701 65.6461 44.1251 66.0999 44.5789C66.5538 45.0328 66.8087 45.6483 66.8087 46.2901Z" fill="white"/>
<path d="M82.3092 46.2901C82.3112 46.7716 82.1701 47.2428 81.9038 47.6439C81.6376 48.0451 81.2582 48.3581 80.8138 48.5432C80.3693 48.7284 79.8799 48.7774 79.4076 48.6839C78.9353 48.5905 78.5014 48.3588 78.161 48.0184C77.8205 47.6779 77.5889 47.244 77.4954 46.7717C77.402 46.2994 77.451 45.81 77.6361 45.3656C77.8213 44.9212 78.1343 44.5417 78.5354 44.2755C78.9366 44.0092 79.4077 43.8682 79.8892 43.8701C80.5302 43.8728 81.1442 44.1286 81.5975 44.5818C82.0508 45.0351 82.3066 45.6491 82.3092 46.2901Z" fill="white"/>
<path d="M97.8009 46.2901C97.8009 46.7687 97.659 47.2366 97.3931 47.6346C97.1272 48.0326 96.7492 48.3427 96.307 48.5259C95.8648 48.7091 95.3783 48.757 94.9088 48.6636C94.4394 48.5702 94.0082 48.3398 93.6697 48.0013C93.3313 47.6629 93.1008 47.2317 93.0074 46.7622C92.9141 46.2928 92.962 45.8062 93.1451 45.364C93.3283 44.9218 93.6385 44.5439 94.0365 44.278C94.4344 44.012 94.9023 43.8701 95.3809 43.8701C96.0219 43.8727 96.636 44.1286 97.0892 44.5818C97.5425 45.0351 97.7983 45.6491 97.8009 46.2901Z" fill="white"/>
<path d="M113.289 46.2901C113.289 46.7687 113.147 47.2366 112.881 47.6346C112.615 48.0326 112.238 48.3427 111.795 48.5259C111.353 48.7091 110.867 48.757 110.397 48.6636C109.928 48.5702 109.496 48.3398 109.158 48.0013C108.82 47.6629 108.589 47.2317 108.496 46.7622C108.402 46.2928 108.45 45.8062 108.633 45.364C108.817 44.9218 109.127 44.5439 109.525 44.278C109.923 44.012 110.391 43.8701 110.869 43.8701C111.511 43.8701 112.127 44.1251 112.58 44.5789C113.034 45.0328 113.289 45.6483 113.289 46.2901Z" fill="white"/>
<path d="M20.3283 31.6702C20.3263 32.1484 20.1827 32.6153 19.9156 33.012C19.6485 33.4086 19.2698 33.7173 18.8274 33.8989C18.3851 34.0805 17.8988 34.127 17.43 34.0325C16.9613 33.938 16.531 33.7067 16.1936 33.3679C15.8561 33.0291 15.6266 32.5978 15.5341 32.1287C15.4415 31.6595 15.49 31.1735 15.6734 30.7318C15.8569 30.2902 16.1671 29.9129 16.5648 29.6474C16.9626 29.3819 17.4301 29.2402 17.9083 29.2402C18.2269 29.2402 18.5424 29.3032 18.8367 29.4254C19.1309 29.5476 19.3982 29.7268 19.623 29.9526C19.8479 30.1783 20.0259 30.4463 20.1469 30.7411C20.268 31.0358 20.3296 31.3516 20.3283 31.6702Z" fill="white"/>
<path d="M35.8283 31.6702C35.8263 32.1484 35.6827 32.6153 35.4156 33.012C35.1485 33.4086 34.7698 33.7173 34.3274 33.8989C33.8851 34.0805 33.3988 34.127 32.93 34.0325C32.4613 33.938 32.031 33.7067 31.6936 33.3679C31.3561 33.0291 31.1266 32.5978 31.0341 32.1287C30.9415 31.6595 30.99 31.1735 31.1734 30.7318C31.3569 30.2902 31.6671 29.9129 32.0648 29.6474C32.4626 29.3819 32.9301 29.2402 33.4083 29.2402C34.051 29.2429 34.6665 29.5001 35.1201 29.9555C35.5736 30.4109 35.8283 31.0275 35.8283 31.6702Z" fill="white"/>
<path d="M51.3204 31.6702C51.3185 32.1484 51.1749 32.6153 50.9078 33.012C50.6406 33.4086 50.262 33.7173 49.8196 33.8989C49.3773 34.0805 48.891 34.127 48.4222 34.0325C47.9535 33.938 47.5232 33.7067 47.1857 33.3679C46.8483 33.0291 46.6188 32.5978 46.5262 32.1287C46.4337 31.6595 46.4822 31.1735 46.6656 30.7318C46.8491 30.2902 47.1593 29.9129 47.557 29.6474C47.9548 29.3819 48.4222 29.2402 48.9004 29.2402C49.2191 29.2402 49.5346 29.3032 49.8289 29.4254C50.1231 29.5476 50.3903 29.7268 50.6152 29.9526C50.84 30.1783 51.0181 30.4463 51.1391 30.7411C51.2601 31.0358 51.3218 31.3516 51.3204 31.6702Z" fill="white"/>
<path d="M66.8087 31.6702C66.8068 32.1484 66.6631 32.6153 66.396 33.012C66.1289 33.4086 65.7503 33.7173 65.3079 33.8989C64.8656 34.0805 64.3793 34.127 63.9105 34.0325C63.4417 33.938 63.0115 33.7067 62.674 33.3679C62.3366 33.0291 62.1071 32.5978 62.0145 32.1287C61.922 31.6595 61.9705 31.1735 62.1539 30.7318C62.3374 30.2902 62.6475 29.9129 63.0453 29.6474C63.443 29.3819 63.9105 29.2402 64.3887 29.2402C64.7074 29.2402 65.0229 29.3032 65.3171 29.4254C65.6114 29.5476 65.8786 29.7268 66.1035 29.9526C66.3283 30.1783 66.5064 30.4463 66.6274 30.7411C66.7484 31.0358 66.81 31.3516 66.8087 31.6702Z" fill="white"/>
<path d="M82.3092 31.6698C82.3092 32.1508 82.1664 32.621 81.899 33.0208C81.6315 33.4207 81.2514 33.7321 80.8068 33.9157C80.3622 34.0994 79.8731 34.1469 79.4015 34.0523C78.9298 33.9577 78.4969 33.7253 78.1574 33.3845C77.818 33.0436 77.5873 32.6097 77.4947 32.1377C77.4021 31.6656 77.4516 31.1767 77.6371 30.7329C77.8225 30.2891 78.1356 29.9102 78.5365 29.6444C78.9374 29.3786 79.4082 29.2378 79.8892 29.2398C80.532 29.2424 81.1475 29.4996 81.601 29.955C82.0546 30.4104 82.3092 31.027 82.3092 31.6698Z" fill="white"/>
<path d="M97.8009 31.6702C97.7989 32.1484 97.6553 32.6153 97.3882 33.012C97.1211 33.4086 96.7425 33.7173 96.3001 33.8989C95.8577 34.0805 95.3715 34.127 94.9027 34.0325C94.4339 33.938 94.0037 33.7067 93.6662 33.3679C93.3288 33.0291 93.0993 32.5978 93.0067 32.1287C92.9141 31.6595 92.9627 31.1735 93.1461 30.7318C93.3296 30.2902 93.6397 29.9129 94.0375 29.6474C94.4352 29.3819 94.9027 29.2402 95.3809 29.2402C96.0237 29.2429 96.6392 29.5001 97.0927 29.9555C97.5463 30.4109 97.8009 31.0275 97.8009 31.6702Z" fill="white"/>
<path d="M20.3283 17.0001C20.3283 17.4787 20.1864 17.9466 19.9204 18.3446C19.6545 18.7425 19.2766 19.0527 18.8344 19.2359C18.3922 19.419 17.9056 19.467 17.4362 19.3736C16.9667 19.2802 16.5355 19.0497 16.1971 18.7113C15.8586 18.3728 15.6282 17.9416 15.5348 17.4722C15.4414 17.0028 15.4893 16.5162 15.6725 16.074C15.8557 15.6318 16.1658 15.2538 16.5638 14.9879C16.9618 14.722 17.4297 14.5801 17.9083 14.5801C18.2261 14.5801 18.5408 14.6427 18.8344 14.7643C19.128 14.8859 19.3948 15.0642 19.6195 15.2889C19.8442 15.5136 20.0225 15.7804 20.1441 16.074C20.2657 16.3676 20.3283 16.6823 20.3283 17.0001Z" fill="white"/>
<path d="M35.8283 17.0001C35.8283 17.4787 35.6864 17.9466 35.4204 18.3446C35.1545 18.7425 34.7766 19.0527 34.3344 19.2359C33.8922 19.419 33.4056 19.467 32.9362 19.3736C32.4667 19.2802 32.0355 19.0497 31.6971 18.7113C31.3586 18.3728 31.1282 17.9416 31.0348 17.4722C30.9414 17.0028 30.9893 16.5162 31.1725 16.074C31.3557 15.6318 31.6658 15.2538 32.0638 14.9879C32.4618 14.722 32.9297 14.5801 33.4083 14.5801C34.0501 14.5801 34.6656 14.835 35.1195 15.2889C35.5733 15.7427 35.8283 16.3583 35.8283 17.0001Z" fill="white"/>
<path d="M51.3205 17.0001C51.3205 17.4787 51.1785 17.9466 50.9126 18.3446C50.6467 18.7425 50.2688 19.0527 49.8266 19.2359C49.3844 19.419 48.8978 19.467 48.4284 19.3736C47.9589 19.2802 47.5277 19.0497 47.1893 18.7113C46.8508 18.3728 46.6203 17.9416 46.527 17.4722C46.4336 17.0028 46.4815 16.5162 46.6647 16.074C46.8478 15.6318 47.158 15.2538 47.556 14.9879C47.954 14.722 48.4218 14.5801 48.9005 14.5801C49.5423 14.5801 50.1578 14.835 50.6117 15.2889C51.0655 15.7427 51.3205 16.3583 51.3205 17.0001Z" fill="white"/>
<path d="M66.8087 17.0001C66.8087 17.4787 66.6668 17.9466 66.4009 18.3446C66.135 18.7425 65.757 19.0527 65.3148 19.2359C64.8726 19.419 64.3861 19.467 63.9166 19.3736C63.4472 19.2802 63.016 19.0497 62.6776 18.7113C62.3391 18.3728 62.1086 17.9416 62.0153 17.4722C61.9219 17.0028 61.9698 16.5162 62.153 16.074C62.3361 15.6318 62.6463 15.2538 63.0443 14.9879C63.4422 14.722 63.9101 14.5801 64.3888 14.5801C65.0306 14.5801 65.6461 14.835 66.0999 15.2889C66.5538 15.7427 66.8087 16.3583 66.8087 17.0001Z" fill="white"/>
<path d="M82.3092 17.0001C82.3112 17.4816 82.1701 17.9527 81.9038 18.3539C81.6376 18.755 81.2582 19.068 80.8138 19.2532C80.3693 19.4383 79.8799 19.4873 79.4076 19.3939C78.9353 19.3004 78.5014 19.0688 78.161 18.7283C77.8205 18.3879 77.5889 17.954 77.4954 17.4817C77.402 17.0094 77.451 16.52 77.6361 16.0755C77.8213 15.6311 78.1343 15.2517 78.5354 14.9855C78.9366 14.7192 79.4077 14.5781 79.8892 14.5801C80.531 14.5801 81.1466 14.8351 81.6004 15.2889C82.0542 15.7427 82.3092 16.3583 82.3092 17.0001Z" fill="white"/>
<path d="M97.8009 17.0001C97.8009 17.4787 97.659 17.9466 97.3931 18.3446C97.1272 18.7425 96.7492 19.0527 96.307 19.2359C95.8648 19.419 95.3783 19.467 94.9088 19.3736C94.4394 19.2802 94.0082 19.0497 93.6697 18.7113C93.3313 18.3728 93.1008 17.9416 93.0074 17.4722C92.9141 17.0028 92.962 16.5162 93.1451 16.074C93.3283 15.6318 93.6385 15.2538 94.0365 14.9879C94.4344 14.722 94.9023 14.5801 95.3809 14.5801C96.0228 14.5801 96.6383 14.835 97.0921 15.2889C97.546 15.7427 97.8009 16.3583 97.8009 17.0001Z" fill="white"/>
<path d="M35.8283 2.42C35.8283 2.89863 35.6864 3.36651 35.4204 3.76448C35.1545 4.16245 34.7766 4.47262 34.3344 4.65579C33.8922 4.83895 33.4056 4.88688 32.9362 4.7935C32.4667 4.70012 32.0355 4.46964 31.6971 4.1312C31.3586 3.79276 31.1282 3.36155 31.0348 2.89212C30.9414 2.42268 30.9893 1.9361 31.1725 1.49391C31.3557 1.05171 31.6658 0.673757 32.0638 0.407844C32.4618 0.141931 32.9297 0 33.4083 0C34.0501 0 34.6656 0.254964 35.1195 0.708802C35.5733 1.16264 35.8283 1.77818 35.8283 2.42Z" fill="white"/>
<path d="M51.3205 2.42C51.3205 2.89863 51.1785 3.36651 50.9126 3.76448C50.6467 4.16245 50.2688 4.47262 49.8266 4.65579C49.3844 4.83895 48.8978 4.88688 48.4284 4.7935C47.9589 4.70012 47.5277 4.46964 47.1893 4.1312C46.8508 3.79276 46.6203 3.36155 46.527 2.89212C46.4336 2.42268 46.4815 1.9361 46.6647 1.49391C46.8478 1.05171 47.158 0.673757 47.556 0.407844C47.954 0.141931 48.4218 0 48.9005 0C49.5423 0 50.1578 0.254964 50.6117 0.708802C51.0655 1.16264 51.3205 1.77818 51.3205 2.42Z" fill="white"/>
<path d="M66.8087 2.42C66.8087 2.89863 66.6668 3.36651 66.4009 3.76448C66.135 4.16245 65.757 4.47262 65.3148 4.65579C64.8726 4.83895 64.3861 4.88688 63.9166 4.7935C63.4472 4.70012 63.016 4.46964 62.6776 4.1312C62.3391 3.79276 62.1086 3.36155 62.0153 2.89212C61.9219 2.42268 61.9698 1.9361 62.153 1.49391C62.3361 1.05171 62.6463 0.673757 63.0443 0.407844C63.4422 0.141931 63.9101 0 64.3888 0C65.0306 0 65.6461 0.254964 66.0999 0.708802C66.5538 1.16264 66.8087 1.77818 66.8087 2.42Z" fill="white"/>
<path d="M82.3092 2.42002C82.3112 2.90147 82.1701 3.37267 81.9038 3.77381C81.6376 4.17495 81.2582 4.48795 80.8138 4.67311C80.3693 4.85827 79.8799 4.90724 79.4076 4.81379C78.9353 4.72035 78.5014 4.48871 78.161 4.14827C77.8205 3.80783 77.5889 3.37393 77.4954 2.90162C77.402 2.42932 77.451 1.9399 77.6361 1.49547C77.8213 1.05104 78.1343 0.67163 78.5354 0.40538C78.9366 0.13913 79.4077 -0.00195675 79.8892 2.05012e-05C80.531 2.05012e-05 81.1466 0.254984 81.6004 0.708822C82.0542 1.16266 82.3092 1.7782 82.3092 2.42002Z" fill="white"/>
</g>
<defs>
<clipPath id="clip0_1020_3820">
<rect width="113.29" height="107.2" fill="white"/>
</clipPath>
</defs>
</svg>
