<svg width="99" height="47" viewBox="0 0 99 47" fill="none" xmlns="http://www.w3.org/2000/svg">
<g clip-path="url(#clip0_1020_3815)">
<path d="M0.601562 0.600098L16.8216 13.0601L33.0516 0.600098L49.2716 13.0601L65.5016 0.600098L81.7216 13.0601L97.9516 0.600098" stroke="white" stroke-width="1.2" stroke-linecap="round" stroke-linejoin="round"/>
<path d="M0.601562 11.4502L16.8216 23.9102L33.0516 11.4502L49.2716 23.9102L65.5016 11.4502L81.7216 23.9102L97.9516 11.4502" stroke="white" stroke-width="1.2" stroke-linecap="round" stroke-linejoin="round"/>
<path d="M0.601562 22.2998L16.8216 34.7598L33.0516 22.2998L49.2716 34.7598L65.5016 22.2998L81.7216 34.7598L97.9516 22.2998" stroke="white" stroke-width="1.2" stroke-linecap="round" stroke-linejoin="round"/>
<path d="M0.601562 33.1499L16.8216 45.6099L33.0516 33.1499L49.2716 45.6099L65.5016 33.1499L81.7216 45.6099L97.9516 33.1499" stroke="white" stroke-width="1.2" stroke-linecap="round" stroke-linejoin="round"/>
</g>
<defs>
<clipPath id="clip0_1020_3815">
<rect width="98.55" height="46.2" fill="white"/>
</clipPath>
</defs>
</svg>
