<svg width="30" height="30" viewBox="0 0 30 30" fill="none" xmlns="http://www.w3.org/2000/svg">
<g clip-path="url(#clip0_1020_3811)">
<path d="M14.6822 3.40631e-06C11.7764 4.07959e-06 8.9358 0.86181 6.51983 2.47641C4.10385 4.09101 2.221 6.38587 1.10945 9.0707C-0.0021106 11.7555 -0.292437 14.7097 0.275191 17.5596C0.842819 20.4094 2.2429 23.0269 4.29833 25.0809C6.35377 27.135 8.97221 28.5333 11.8224 29.099C14.6727 29.6646 17.6267 29.3723 20.3107 28.2589C22.9948 27.1455 25.2884 25.2611 26.9013 22.8441C28.5143 20.427 29.3742 17.5858 29.3722 14.68C29.3722 12.7514 28.9922 10.8416 28.2538 9.0599C27.5154 7.27819 26.4332 5.65943 25.069 4.29614C23.7048 2.93284 22.0853 1.85173 20.3031 1.11458C18.5208 0.37743 16.6108 -0.00131039 14.6822 3.40631e-06ZM8.68219 8.93H20.8622C21.002 8.93643 21.1368 8.98403 21.2496 9.06682C21.3624 9.1496 21.4483 9.26389 21.4964 9.39531C21.5444 9.52674 21.5526 9.66944 21.5198 9.80549C21.4871 9.94154 21.4148 10.0649 21.3122 10.16L15.2222 15.06C15.0924 15.1574 14.9345 15.21 14.7722 15.21C14.6099 15.21 14.452 15.1574 14.3222 15.06L8.22219 10.06C8.14511 9.96346 8.09495 9.84825 8.07681 9.72605C8.05867 9.60386 8.07319 9.47903 8.11889 9.36427C8.1646 9.2495 8.23986 9.14887 8.33704 9.07259C8.43422 8.99632 8.54985 8.94713 8.67219 8.93H8.68219ZM22.6822 19.85C22.6822 20.18 22.5922 20.43 22.2222 20.43H7.31219C7.23225 20.4354 7.15203 20.4245 7.07644 20.398C7.00085 20.3714 6.93146 20.3297 6.87251 20.2754C6.81357 20.2212 6.76629 20.1554 6.73357 20.0823C6.70084 20.0092 6.68336 19.9301 6.68219 19.85V13.21C6.69547 13.0879 6.74158 12.9716 6.81563 12.8736C6.88967 12.7756 6.98888 12.6995 7.10273 12.6533C7.21657 12.6072 7.34079 12.5927 7.46218 12.6115C7.58358 12.6303 7.69762 12.6816 7.79219 12.76L14.1422 17.76C14.3248 17.8987 14.5479 17.9738 14.7772 17.9738C15.0065 17.9738 15.2295 17.8987 15.4122 17.76L21.6622 12.76C21.7474 12.6837 21.8527 12.6333 21.9656 12.6149C22.0785 12.5964 22.1943 12.6106 22.2994 12.6558C22.4046 12.701 22.4945 12.7753 22.5588 12.8699C22.6231 12.9646 22.659 13.0756 22.6622 13.19L22.6822 19.85Z" fill="#F5BF3E"/>
</g>
<defs>
<clipPath id="clip0_1020_3811">
<rect width="29.37" height="29.37" fill="white"/>
</clipPath>
</defs>
</svg>
