<svg width="30" height="30" viewBox="0 0 30 30" fill="none" xmlns="http://www.w3.org/2000/svg">
<g clip-path="url(#clip0_1020_3813)">
<path d="M14.6822 3.40631e-06C11.7764 4.07959e-06 8.9358 0.86181 6.51983 2.47641C4.10385 4.09101 2.221 6.38587 1.10945 9.0707C-0.0021106 11.7555 -0.292437 14.7097 0.275191 17.5596C0.842819 20.4094 2.2429 23.0269 4.29833 25.0809C6.35377 27.135 8.97221 28.5333 11.8224 29.099C14.6727 29.6646 17.6267 29.3723 20.3107 28.2589C22.9948 27.1455 25.2884 25.2611 26.9013 22.8441C28.5143 20.427 29.3742 17.5858 29.3722 14.68C29.3722 12.7514 28.9922 10.8416 28.2538 9.0599C27.5154 7.27819 26.4332 5.65943 25.069 4.29614C23.7048 2.93284 22.0853 1.85173 20.3031 1.11458C18.5208 0.37743 16.6108 -0.00131039 14.6822 3.40631e-06ZM24.2922 9.52C22.8961 11.0591 21.1149 12.1982 19.1322 12.82C18.8722 12.77 18.4622 11.98 18.1322 11.53C17.9137 11.2684 17.6178 11.083 17.2871 11.0003C16.9565 10.9176 16.6081 10.942 16.2922 11.07C15.4457 11.6627 14.6557 12.3322 13.9322 13.07L13.5422 13.46L13.1522 13.85C12.4144 14.5735 11.7449 15.3635 11.1522 16.21C11.0242 16.5259 10.9998 16.8743 11.0825 17.2049C11.1652 17.5356 11.3506 17.8315 11.6122 18.05C12.0622 18.4 12.8522 18.81 12.9022 19.05C12.2803 21.0327 11.1412 22.8139 9.60219 24.21C9.60219 24.21 9.00219 24.33 7.97219 23.04C7.52485 22.5386 7.18564 21.9504 6.97574 21.3121C6.76583 20.6738 6.68973 19.999 6.75219 19.33C6.75219 19.33 6.88219 18.26 8.93219 15.49C9.85605 14.2428 10.883 13.0754 12.0022 12C13.1141 10.8617 14.3219 9.82117 15.6122 8.89C18.3822 6.89 19.4522 6.71 19.4522 6.71C20.1212 6.64755 20.796 6.72364 21.4343 6.93355C22.0726 7.14346 22.6608 7.48266 23.1622 7.93C24.4122 8.92 24.2922 9.52 24.2922 9.52Z" fill="#F5BF3E"/>
</g>
<defs>
<clipPath id="clip0_1020_3813">
<rect width="29.37" height="29.37" fill="white"/>
</clipPath>
</defs>
</svg>
