<svg width="19" height="19" viewBox="0 0 19 19" fill="none" xmlns="http://www.w3.org/2000/svg">
<g clip-path="url(#clip0_1020_3931)">
<path d="M9.38 0C7.52482 0 5.71129 0.550127 4.16876 1.58082C2.62622 2.6115 1.42396 4.07646 0.714014 5.79043C0.0040642 7.5044 -0.181691 9.39041 0.180238 11.2099C0.542168 13.0295 1.43553 14.7008 2.74734 16.0127C4.05916 17.3245 5.73052 18.2178 7.55006 18.5798C9.3696 18.9417 11.2556 18.7559 12.9696 18.046C14.6835 17.336 16.1485 16.1338 17.1792 14.5912C18.2099 13.0487 18.76 11.2352 18.76 9.38C18.76 6.89227 17.7718 4.50643 16.0127 2.74734C14.2536 0.988247 11.8677 0 9.38 0V0ZM10.24 10L8.81 14.42L6.91 13.81L8.52 8.81L12.82 5.42L14.06 7L10.24 10Z" fill="#273643"/>
</g>
<defs>
<clipPath id="clip0_1020_3931">
<rect width="18.76" height="18.76" fill="white"/>
</clipPath>
</defs>
</svg>
